<svg width="550" height="559" viewBox="0 0 550 559" fill="none" xmlns="http://www.w3.org/2000/svg">
<path d="M23.9816 403.816L23.6769 403.273C20.5232 397.582 17.6026 389.709 15.2497 383.549C-4.60233 331.554 -3.94987 264.599 10.7325 211.422C21.5782 172.141 51.9922 127.993 87.6625 107.837C131.131 83.2732 181.176 81.0368 228.458 94.2125C238.406 96.9843 247.484 100.979 257.003 103.677C259.615 103.91 271.481 110.288 274.415 111.785C282.564 108.474 289.407 104.719 298.043 102.77C348.377 85.8091 398.122 79.6752 448.349 103.552C490.094 123.396 522.446 167.761 537.293 210.761C546.733 238.097 549.705 269.078 549.429 297.849C549.373 303.648 549.523 311.544 549.013 317.255C547.473 334.441 544.22 351.427 539.305 367.968C537.227 375.195 532.041 391.9 528.226 397.937C524.154 409.859 515.697 424.307 508.802 434.811C474.138 487.644 422.372 525.898 362.33 544.939C303.383 563.623 240.019 563.052 181.418 543.31C116.811 521.035 57.2691 472.784 27.119 410.842C26.0121 408.525 24.966 406.184 23.9816 403.816Z" fill="#FD2E5C"/>
<path d="M375.969 444.42C393.933 423.428 410.132 409.241 436.675 399.084C460.214 390.079 489.561 388.984 514.18 393.898C517.864 394.638 525.006 396.458 528.226 397.937C524.154 409.859 515.697 424.307 508.802 434.811C474.138 487.644 422.372 525.898 362.33 544.939C303.383 563.623 240.019 563.052 181.418 543.31C116.811 521.035 57.2691 472.784 27.119 410.842C26.0121 408.525 24.966 406.184 23.9816 403.816C51.4301 398.663 67.9852 397.965 95.7692 403.928C129.462 411.16 151.721 421.92 175.178 447.233C181.327 440.928 186.727 435.274 193.854 429.971C241.507 394.497 308.883 392.742 357.219 428.085C364.09 433.107 369.8 438.639 375.969 444.42Z" fill="#FECE7A"/>
<path d="M398.136 149.031C428.92 145.193 457.003 166.979 460.939 197.747C464.875 228.515 443.177 256.67 412.421 260.7C381.529 264.753 353.222 242.938 349.266 212.032C345.311 181.125 367.221 152.886 398.136 149.031Z" fill="#FE898E"/>
<path d="M257.003 103.677C257.565 97.1214 257.319 87.2184 257.317 80.4396L257.296 41.0763C257.294 31.5332 255.871 14.8789 261.965 7.30164C265.321 3.09759 270.264 0.468533 275.623 0.0374564C283.388 -0.537312 294.898 5.57218 296.494 13.5866C298.272 22.5241 297.327 33.2538 297.505 42.4519C297.888 62.4172 296.817 82.8308 298.043 102.77C289.407 104.719 282.564 108.474 274.415 111.785C271.481 110.288 259.615 103.91 257.003 103.677Z" fill="#4E3E38"/>
</svg>
