<svg width="600" height="559" viewBox="0 0 600 559" fill="none" xmlns="http://www.w3.org/2000/svg">
<path d="M3.70492 374.931C8.05398 358.006 13.3671 344.415 23.2334 329.737C42.9106 300.298 73.5158 279.919 108.267 273.12C133.78 268.102 160.194 270.414 184.447 279.793C189.913 281.928 196.442 284.849 201.242 288.097C193.984 295.804 178.44 307.432 173.703 315.559C174.252 319.902 180.101 325.304 183.304 327.972C189.997 333.55 202.352 337.739 210.996 336.586C219.708 330.41 226.887 321.631 234.823 314.666C258.707 340.886 271.289 375.464 269.838 410.899C267.985 449.539 253.302 477.35 226.704 504.308C193.116 536.661 140.754 548.04 96.3991 534.507C61.7045 524.125 32.6172 500.275 15.6423 468.283C3.28827 445.012 -1.93047 418.616 0.638565 392.393C1.16253 387.009 2.10278 380.052 3.70492 374.931Z" fill="#EF3530"/>
<path d="M3.70492 374.931C4.49104 377.625 11.3198 380.261 13.823 382.162C16.5267 384.215 19.8927 386.145 22.5276 388.421C40.2004 404.629 53.9344 427.612 74.702 440.28C86.0254 447.187 102.758 447.364 115.779 449.604C121.371 450.572 126.85 452.103 132.132 454.177C149.589 461.005 158.895 470.353 171.662 483.245C176.701 488.334 184.605 492.63 190.918 495.813C201.608 501.092 212.971 503.739 224.909 503.617C225.495 503.613 226.23 504.027 226.704 504.308C193.116 536.661 140.754 548.04 96.3991 534.507C61.7045 524.125 32.6172 500.275 15.6423 468.283C3.28827 445.012 -1.93047 418.616 0.638565 392.393C1.16253 387.009 2.10278 380.052 3.70492 374.931Z" fill="#C72726"/>
<path d="M154.918 294.979C156.442 292.609 158.672 290.236 161.81 290.388C168.909 290.73 168.648 297.878 169.535 303.132C170.086 306.398 171.187 313.085 173.703 315.559C174.252 319.902 180.101 325.304 183.304 327.972C189.997 333.55 202.352 337.739 210.996 336.586C216.927 337.767 221.892 336.176 227.382 337.613C229.844 338.257 230.836 340.173 231.879 342.29C231.651 344.325 231.444 347.235 229.747 348.556C225.813 351.617 214.838 351.21 209.912 351.045C194.386 350.53 178.734 344.469 168.228 332.769C159.448 322.992 154.276 308.141 154.918 294.979Z" fill="#C72726"/>
<path d="M102.956 303.83C119 301.778 133.651 313.172 135.613 329.229C137.576 345.283 126.102 359.871 110.036 361.744C94.0944 363.605 79.6445 352.24 77.697 336.309C75.7496 320.378 87.0362 305.865 102.956 303.83Z" fill="#FAAF97"/>
<path d="M469.251 289.278C474.869 288.807 480.501 289.833 486.054 290.647C549.412 299.909 598.758 356.648 599.291 420.662C602.254 449.413 588.451 485.449 570.446 507.618C548.076 535.649 515.507 553.669 479.878 557.734C443.37 561.732 406.793 550.863 378.391 527.582C368.592 519.487 357.71 507.254 351.203 496.443C341.757 481.463 334.861 464.869 331.937 447.353C325.577 411.093 334.14 373.8 355.679 343.947C370.026 324.029 389.699 308.562 412.44 299.322C417.035 297.46 421.936 295.461 426.815 294.694C428.929 306.142 424.946 320.241 428.792 333.176C435.04 336.932 444.734 335.167 451.357 333.334C455.995 332.049 467.76 325.488 469.967 321.318C469.928 309.034 470 301.691 469.251 289.278Z" fill="#EF3530"/>
<path d="M599.291 420.662C602.254 449.413 588.451 485.449 570.446 507.618C548.076 535.649 515.507 553.669 479.878 557.734C443.37 561.732 406.793 550.863 378.391 527.582C368.592 519.487 357.71 507.254 351.203 496.443C354.508 495.071 358.83 494.25 362.287 493.458C375.96 490.325 386.407 491.87 399.796 492.673C406.775 493.058 413.758 493.35 420.744 493.548C439.498 494.092 451.998 492.014 467.544 480.148C472.823 476.119 477.929 471.34 483.4 467.638C491.715 462.128 500.894 458.059 510.559 455.596C525.14 451.829 534.013 453.558 548.029 452.528C566.402 451.181 587.058 441.818 599.111 427.453C599.111 425.066 599.125 423.042 599.291 420.662Z" fill="#C72726"/>
<path d="M469.967 321.318C475.013 318.012 481.977 303.071 490.116 312.884C491.117 314.086 491.545 316.762 491.034 318.289C486.9 327.303 471.62 339.096 463.77 343.151C451.281 349.68 436.671 350.839 423.311 346.363C416.613 344.174 397.192 335.261 400.531 326.453C405.615 313.031 420.132 333.543 428.792 333.176C435.04 336.932 444.734 335.167 451.357 333.334C455.995 332.049 467.76 325.488 469.967 321.318Z" fill="#C72726"/>
<path d="M389.972 363.656C406.015 361.852 420.474 373.422 422.235 389.472C423.992 405.519 412.378 419.945 396.325 421.655C380.336 423.359 365.982 411.806 364.231 395.825C362.481 379.839 373.994 365.453 389.972 363.656Z" fill="#FAAF97"/>
<path d="M255.391 153.206C228.519 163.207 200.613 168.784 171.811 165.165C166.081 164.445 159.105 163.14 153.896 160.774C145.368 156.923 138.732 149.824 135.464 141.056C128.786 122.947 138.205 102.028 156.436 95.4929C168.557 91.1485 178.749 95.7681 190.943 95.7825C205.948 95.6838 224.038 90.2375 237.904 84.1962C267.354 71.3644 298.263 50.5085 323.2 30.2486C328.13 26.1887 332.981 22.0399 337.76 17.805C343.651 12.5279 349.287 6.21658 356.503 3.0566C366.237 -1.2172 377.354 -1.00005 386.915 3.65043C395.248 7.73338 401.597 14.9842 404.549 23.7825C407.481 32.4273 407.092 42.5252 402.954 50.7419C401.571 53.4874 399.832 56.0366 397.776 58.3222C392.961 63.7642 368.711 85.6558 362.831 89.0642C366.709 92.9495 370.991 96.5153 374.959 100.244C425.681 147.886 462.315 212.442 468.707 282.454C468.916 284.716 469.042 287.006 469.251 289.278C470 301.691 469.928 309.034 469.967 321.318C467.76 325.488 455.995 332.049 451.357 333.334C444.734 335.167 435.04 336.932 428.792 333.176C424.946 320.241 428.929 306.142 426.815 294.694C424.73 233.526 389.951 172.491 345.949 131.361C342.362 127.972 338.7 124.665 334.965 121.441C332.859 119.65 329.441 117.09 327.601 115.277C321.555 119.204 315.44 123.024 309.26 126.734C304.442 129.585 298.684 132.7 294.042 135.646C296.206 141.836 298.558 149.104 299.71 155.568C305.141 186 299.656 215.49 286.368 243.047C276.894 262.602 264.873 280.819 250.618 297.219C246.501 302.041 238.129 310.186 234.823 314.666C226.887 321.631 219.708 330.41 210.996 336.586C202.352 337.739 189.997 333.55 183.304 327.972C180.101 325.304 174.252 319.902 173.703 315.559C178.44 307.432 193.984 295.804 201.242 288.097C205.111 284.352 209.111 279.656 212.751 275.601C235.665 250.092 258.54 215.038 259.237 179.688C259.42 170.361 257.751 162.154 255.391 153.206Z" fill="#259D48"/>
<path d="M165.373 104.707C179.329 103.227 191.831 113.369 193.26 127.33C194.69 141.291 184.503 153.756 170.537 155.135C156.642 156.507 144.255 146.383 142.832 132.493C141.41 118.603 151.489 106.18 165.373 104.707Z" fill="#8CC750"/>
</svg>
