<svg width="487" height="574" viewBox="0 0 487 574" fill="none" xmlns="http://www.w3.org/2000/svg">
<path d="M207.499 91.8224C208.246 87.9904 208.012 81.8005 208.007 77.7673L208.009 50.5126C208.029 40.7732 207.337 29.44 209.95 20.0466C211.457 14.6316 215.463 9.13385 219.925 5.80568C227.485 0.270942 235.137 -0.0244637 244.174 0.0154269C247.829 0.0312394 250.873 -0.151323 254.542 0.425114C262.434 1.65525 269.495 6.01484 274.135 12.5181C282.027 23.4301 279.673 39.1377 280.072 51.9013C280.413 62.8593 279.522 74.1441 280.521 85.0913C293.027 81.3384 299.812 80.4313 312.89 80.8119C337.59 81.6162 361.751 88.2075 383.439 100.055C410.91 114.851 433.913 139.869 451.35 165.381C460.737 179.119 472.866 193.917 450.423 203.719C454.692 211.415 459.461 219.316 463.217 227.242C487.032 277.479 492.746 337.335 479.133 391.213C466.275 442.19 437.104 487.568 396.067 520.43C342.711 563.379 278.631 580 211.455 571.953C81.4126 556.378 -13.0358 434.431 1.47105 304.848C9.64827 231.805 50.7464 163.258 113.337 125.084C136.101 110.99 160.986 100.653 187.038 94.4718C193.267 93.0116 201.16 91.0749 207.499 91.8224Z" fill="#F89F2B"/>
<path d="M207.499 91.8224C208.246 87.9904 208.012 81.8005 208.007 77.7673L208.009 50.5126C208.029 40.7732 207.337 29.44 209.95 20.0466C211.457 14.6316 215.463 9.13385 219.925 5.80568C227.485 0.270942 235.137 -0.0244637 244.174 0.0154269C247.829 0.0312394 250.873 -0.151323 254.542 0.425114C262.434 1.65525 269.495 6.01484 274.135 12.5181C282.027 23.4301 279.673 39.1377 280.072 51.9013C280.413 62.8593 279.522 74.1441 280.521 85.0913C293.027 81.3384 299.812 80.4313 312.89 80.8119C337.59 81.6162 361.751 88.2075 383.439 100.055C410.91 114.851 433.913 139.869 451.35 165.381C460.737 179.119 472.866 193.917 450.423 203.719C444.971 204.203 433.91 210.436 427.764 212.415C376.158 229.043 310.277 228.265 267.314 191.603C262.94 187.822 258.847 183.731 255.063 179.361C252.249 176.157 249.087 172.145 245.902 169.411C233.206 167.768 227.06 170.812 216.611 160.42C213.195 157.023 210.347 152.778 208.966 148.135C206.111 138.54 207.516 103.607 207.499 91.8224Z" fill="#2FB553"/>
<path d="M239.15 11.4292C250.247 9.73472 268.478 14.0558 270.908 27.2744C273.38 40.7118 260.087 46.7881 248.907 48.6496C239.294 49.1373 232.393 48.2874 223.932 42.8404C220.173 40.2956 217.784 36.6641 217.027 32.2413C214.781 19.1155 228.384 13.0916 239.15 11.4292Z" fill="#74C772"/>
<path d="M122.712 211.108C146.943 209.723 167.721 228.216 169.155 252.444C170.589 276.672 152.137 297.488 127.912 298.968C103.619 300.456 82.7326 281.941 81.2947 257.644C79.8565 233.348 98.4132 212.498 122.712 211.108Z" fill="#FCD7A9"/>
<path d="M80.5141 320.793C91.7194 320.283 101.209 328.969 101.69 340.174C102.171 351.38 93.4592 360.846 82.2514 361.298C71.0866 361.744 61.6649 353.076 61.1862 341.91C60.7072 330.748 69.3523 321.304 80.5141 320.793Z" fill="#FCD7A9"/>
</svg>
