<svg width="528" height="559" viewBox="0 0 528 559" fill="none" xmlns="http://www.w3.org/2000/svg">
<path d="M0.757023 324.868C-1.76952 310.463 2.58182 272.886 5.68658 258.769C21.6467 186.19 67.2287 124.817 123.548 77.8933C143.415 61.3413 165.988 45.8096 187.231 30.9243C193.307 26.6696 199.446 22.5064 205.646 18.4359C216.97 10.8861 227.203 3.34921 241.036 0.938302C250.674 -0.699733 260.554 -0.188319 269.971 2.4352C281.959 5.66566 293.462 11.9966 304.595 17.3258C323.155 26.2084 341.141 36.1821 358.689 46.9215C392.092 67.3612 422.795 91.969 449.573 120.532C486.126 159.527 515.001 206.28 523.954 259.658C527.33 279.789 527.894 302.799 525.865 323.155C525.581 325.995 524.802 332.137 523.932 334.708C522.6 340.72 521.426 347.867 519.659 353.682C515.651 366.88 509.632 380.236 502.057 391.768C498.987 396.437 495.542 400.38 492.249 405.552C477.553 422.525 460.727 438.094 441.338 449.223C437.606 451.367 433.304 451.982 430.348 455.613C446.243 475.904 465.274 514.774 468.966 541.526C469.383 544.557 467.415 548.971 464.829 550.555C451.602 558.65 420.518 558.736 406.497 557.992C400.385 557.619 394.29 556.947 388.242 555.974C341.339 548.694 296.967 525.656 275.34 481.514C271.842 478.835 260.583 477.728 255.968 477.297C253.615 477.287 248.119 476.802 246.465 478.465C246.359 478.766 246.245 479.064 246.121 479.359C233.739 508.611 206.03 531.492 177.217 543.415C147.922 555.536 118.117 560.119 86.5188 558.079C78.5377 557.561 67.8859 556.588 60.5222 553.46C57.4741 552.164 54.526 550.206 53.3261 546.978C48.8824 535.008 67.9096 493.62 74.2287 481.902C76.2043 478.235 78.2784 474.579 80.5022 471.063C82.6003 467.741 84.9637 464.516 86.6183 460.942L86.8571 460.418C86.3453 459.624 85.6867 459.121 84.8506 458.68C74.1062 453.02 61.8707 445.862 53.5918 436.905C45.4545 428.102 32.6612 416.132 26.6434 405.965C14.5868 385.595 0.834956 348.291 0.757023 324.868Z" fill="#F9B281"/>
<path d="M139.305 316.564C149.732 292.976 162.951 275.637 184.342 260.924C180.222 277.803 177.789 295.052 177.08 312.413C176.97 314.902 176.66 321.323 176.991 323.514C176.929 349.35 181.949 374.946 191.765 398.843C193.409 402.769 195.772 406.852 197.599 410.767C207.624 433.191 226.735 455.253 245.526 470.908C248.681 473.534 251.882 476.726 255.968 477.297C253.615 477.287 248.119 476.802 246.465 478.465C246.359 478.766 246.245 479.064 246.121 479.359C233.739 508.611 206.03 531.492 177.217 543.415C147.922 555.536 118.117 560.119 86.5188 558.079C78.5377 557.561 67.8859 556.588 60.5222 553.46C57.4741 552.164 54.526 550.206 53.3261 546.978C48.8824 535.008 67.9096 493.62 74.2287 481.902C76.2043 478.235 78.2784 474.579 80.5022 471.063C82.6003 467.741 84.9637 464.516 86.6183 460.942L86.8571 460.418C86.3453 459.624 85.6867 459.121 84.8506 458.68C74.1062 453.02 61.8707 445.862 53.5918 436.905C45.4545 428.102 32.6612 416.132 26.6434 405.965C14.5868 385.595 0.834956 348.291 0.757023 324.868C1.08923 322.454 0.586078 319.621 0.98185 316.708C4.90653 314.248 29.9156 326.538 34.2224 328.384C36.7597 329.447 39.3451 330.395 41.9701 331.217C49.1428 333.462 56.5978 334.672 64.1114 334.812C73.0787 334.992 81.0664 333.71 89.5521 331.059C104.034 326.577 116.433 317.865 131.759 315.76C134.808 315.34 137.963 312.973 139.305 316.564Z" fill="#FACC79"/>
<path d="M86.8571 460.418C102.899 471.465 153.903 482.164 174.047 482.789C176.534 483.381 189.467 483.245 192.997 483.187C204.953 482.993 217.684 483.543 229.545 482.347C231.449 482.153 239.092 479.542 241.519 478.795C243.46 478.54 244.47 478.382 246.465 478.465C246.359 478.766 246.245 479.064 246.121 479.359C233.739 508.611 206.03 531.492 177.217 543.415C147.922 555.536 118.117 560.119 86.5188 558.079C78.5377 557.561 67.8859 556.588 60.5222 553.46C57.4741 552.164 54.526 550.206 53.3261 546.978C48.8824 535.008 67.9096 493.62 74.2287 481.902C76.2043 478.235 78.2784 474.579 80.5022 471.063C82.6003 467.741 84.9637 464.516 86.6183 460.942L86.8571 460.418Z" fill="#117D4C"/>
<path d="M139.305 316.564C149.732 292.976 162.951 275.637 184.342 260.924C180.222 277.803 177.789 295.052 177.08 312.413C176.97 314.902 176.66 321.323 176.991 323.514C176.929 349.35 181.949 374.946 191.765 398.843C193.409 402.769 195.772 406.852 197.599 410.767C207.624 433.191 226.735 455.253 245.526 470.908C248.681 473.534 251.882 476.726 255.968 477.297C253.615 477.287 248.119 476.802 246.465 478.465C244.47 478.382 243.46 478.54 241.519 478.795C239.092 479.542 231.449 482.153 229.545 482.347C217.684 483.543 204.953 482.993 192.997 483.187C189.467 483.245 176.534 483.381 174.047 482.789C177.5 482.412 181.853 482.451 185.531 482.203L181.057 482.225C179.58 481.442 179.136 481.244 177.878 480.192L177.908 479.661C137.444 444.375 117.634 366.287 139.305 316.564Z" fill="#F0825A"/>
<path d="M177.908 479.661C184.885 483.457 196.259 480.77 204.231 481.097C211.544 481.395 219.153 481.352 226.474 481.255C229.444 481.216 233.131 478.407 236.076 478.105C235.096 478.842 234.198 479.42 233.168 480.092L233.321 480.4C236.944 479.905 238.463 477.807 241.519 478.795C239.092 479.542 231.449 482.153 229.545 482.347C217.684 483.543 204.953 482.993 192.997 483.187C189.467 483.245 176.534 483.381 174.047 482.789C177.5 482.412 181.853 482.451 185.531 482.203L181.057 482.225C179.58 481.442 179.136 481.244 177.878 480.192L177.908 479.661Z" fill="#C19F72"/>
<path d="M197.599 410.767C203.764 411.65 210.839 415.191 216.895 415.533C221.165 415.777 229.091 415.992 233.27 415.382C255.202 412.185 272.115 396.714 294.428 396.225C302.843 396.038 310.672 396.39 318.957 398.61C327.153 400.804 334.156 404.913 341.913 408.167C357.554 414.724 371.506 417.163 388.357 415.037C406.242 412.782 417.659 402.837 434.834 398.714C453.15 394.318 475.998 395.403 492.249 405.552C477.553 422.525 460.727 438.094 441.338 449.223C437.606 451.367 433.304 451.982 430.348 455.613C446.243 475.904 465.274 514.774 468.966 541.526C469.383 544.557 467.415 548.971 464.829 550.555C451.602 558.65 420.518 558.736 406.497 557.992C400.385 557.619 394.29 556.947 388.242 555.974C341.339 548.694 296.967 525.656 275.34 481.514C271.842 478.835 260.583 477.728 255.968 477.297C251.882 476.726 248.681 473.534 245.526 470.908C226.735 455.253 207.624 433.191 197.599 410.767Z" fill="#F9B281"/>
<path d="M430.348 455.613C446.243 475.904 465.274 514.774 468.966 541.526C469.383 544.557 467.415 548.971 464.829 550.555C451.602 558.65 420.518 558.736 406.497 557.992C400.385 557.619 394.29 556.947 388.242 555.974C341.339 548.694 296.967 525.656 275.34 481.514C284.426 482.81 294.32 483.022 303.41 483.158C338.832 483.697 375.08 477.121 408.239 464.738C412.007 463.33 427.302 457.828 430.348 455.613Z" fill="#117D4C"/>
<path d="M176.991 323.514C182.114 323.539 186.782 325.557 191.547 327.267C205.19 332.162 214.165 335.99 229.014 334.852C244.947 333.631 257.088 326.319 271.375 320.371C282.659 315.677 294.295 314.758 306.312 315.566C323.177 316.701 334.986 324.466 350.138 330.409C358.247 333.588 368.777 334.694 377.497 334.992C390.444 335.459 404.17 330.61 415.566 324.868C436.568 314.288 461.029 312.111 483.235 320.253C494.795 324.494 504.478 332.148 517.213 333.487C518.711 333.645 522.934 334.001 523.932 334.708C522.6 340.72 521.426 347.867 519.659 353.682C515.651 366.88 509.632 380.236 502.057 391.768C498.987 396.437 495.542 400.38 492.249 405.552C475.998 395.403 453.15 394.318 434.834 398.714C417.659 402.837 406.242 412.782 388.357 415.037C371.506 417.163 357.554 414.724 341.913 408.167C334.156 404.913 327.153 400.804 318.957 398.61C310.672 396.39 302.843 396.038 294.428 396.225C272.115 396.714 255.202 412.185 233.27 415.382C229.091 415.992 221.165 415.777 216.895 415.533C210.839 415.191 203.764 411.65 197.599 410.767C195.772 406.852 193.409 402.769 191.765 398.843C181.949 374.946 176.929 349.35 176.991 323.514Z" fill="#FED888"/>
<path d="M326.585 91.6778C350.163 90.5558 370.213 108.707 371.435 132.281C372.656 155.855 354.587 175.98 331.017 177.299C307.31 178.626 287.04 160.428 285.812 136.714C284.584 113 302.868 92.8062 326.585 91.6778Z" fill="#FED888"/>
</svg>
