<svg width="523" height="559" viewBox="0 0 523 559" fill="none" xmlns="http://www.w3.org/2000/svg">
<path d="M457.027 37.424L457.695 36.8522C469.649 26.5403 478.049 10.7434 491 1.4889C492.99 0.0688861 496.786 -0.0821762 499.148 0.0291785C511.93 0.631462 519.066 14.5063 512.458 25.3116C510.298 28.8362 507.229 31.8926 504.639 35.102C497.904 43.4217 489.557 51.5482 483.927 60.5979C489.465 63.5503 492.888 68.1565 496.413 73.2279C507.573 89.3536 515.319 107.585 519.187 126.808C529.142 175.201 513.513 221.551 480.46 257.482C477.357 260.852 463.181 274.49 463.2 276.393C463.486 287.863 465.747 299.211 466.517 310.782C474.374 428.818 393.086 530.48 278.264 554.136C218.627 565.901 156.75 553.918 105.82 520.729C53.2247 486.127 16.6127 431.97 4.10805 370.265C-7.53481 308.517 5.80064 244.667 41.1872 192.74C81.9397 131.924 154.546 93.357 227.78 92.7794C233.896 92.7315 242.731 93.1314 248.475 91.936L249.151 91.7908C251.993 87.9321 255.199 82.6752 257.804 78.6853C287.773 32.7316 339.495 8.75166 393.981 13.7863C411.59 15.4136 444.885 23.3096 457.027 37.424Z" fill="#C3D13D"/>
<path d="M457.027 37.424L457.695 36.8522C469.649 26.5403 478.049 10.7434 491 1.4889C492.99 0.0688861 496.786 -0.0821762 499.148 0.0291785C511.93 0.631462 519.066 14.5063 512.458 25.3116C510.298 28.8362 507.229 31.8926 504.639 35.102C497.904 43.4217 489.557 51.5482 483.927 60.5979C482.397 60.7451 464.992 82.5193 461.825 85.6735C448.085 99.3697 427.383 87.538 432.36 68.8459C434.679 60.1433 454.82 43.993 457.027 37.424Z" fill="#4D3F38"/>
<path d="M361.896 300.005C388.05 295.522 412.868 313.155 417.24 339.328C421.607 365.501 403.863 390.241 377.665 394.492C351.642 398.714 327.096 381.105 322.753 355.097C318.41 329.093 335.907 304.469 361.896 300.005Z" fill="#FEE49C"/>
</svg>
