<svg width="608" height="596" viewBox="0 0 608 596" fill="none" xmlns="http://www.w3.org/2000/svg">
<path d="M243.44 180.146C233.217 173.428 229.665 161.408 240.502 153.716C249.499 147.331 262.997 150.496 273.819 151.113L274.343 151.141C328.497 156.782 381.615 167.303 432.623 182.49C443.168 185.752 453.583 189.268 463.848 193.032C468.02 194.56 475.456 197.768 479.398 198.923C482.083 200.987 492.393 205.268 496.361 207.277C506.377 212.33 516.073 217.748 525.42 223.514C548.546 237.734 570.305 262.113 583.993 281.931C587.612 287.172 593.825 294.275 594.438 300.149C594.942 304.581 593.026 308.974 589.149 312.253C587.676 313.496 582.831 316.662 581.024 317.657C603.551 365.031 615.643 410.725 599.958 460.925C586.489 502.364 552.484 538.009 505.334 560.116C457.86 582.398 399.676 592.262 344.761 594.832C330.783 595.486 313.58 595.8 299.576 595.277C263.234 593.926 227.433 588.603 192.223 581.732C184.008 580.13 174.071 577.13 165.958 574.97C111.272 560.403 56.5225 533.72 26.727 494.088C-0.547839 457.808 -6.48399 414.739 6.8031 374.259C11.8245 358.961 18.9554 344.123 28.0724 330.009C57.7781 283.729 115.352 232.745 173.026 206.185C188.446 199.101 204.549 192.867 220.802 187.023C227.684 184.548 237.209 183.271 243.44 180.146Z" fill="#FECB61"/>
<path d="M243.44 180.146C233.217 173.428 229.665 161.408 240.502 153.716C249.499 147.331 262.997 150.496 273.819 151.113L274.343 151.141C328.497 156.782 381.615 167.303 432.623 182.49C443.168 185.752 453.583 189.268 463.848 193.032C468.02 194.56 475.456 197.768 479.398 198.923C482.083 200.987 492.393 205.268 496.361 207.277C506.377 212.33 516.073 217.748 525.42 223.514C548.546 237.734 570.305 262.113 583.993 281.931C587.612 287.172 593.825 294.275 594.438 300.149C594.942 304.581 593.026 308.974 589.149 312.253C587.676 313.496 582.831 316.662 581.024 317.657C579.941 317.545 577.431 317.943 576.208 318.021C564.376 318.799 557.329 314.281 552.099 306.511C540.467 289.228 527.866 272.45 510.125 258.418C498.941 249.572 486.225 242.439 473.29 235.19C479.768 247.157 487.308 258.988 492.918 271.23C500.478 287.71 505.878 304.988 508.009 322.418C508.787 328.809 511.018 336.788 507.984 342.943C502.18 354.049 483.605 357.579 472.377 348.931C465.021 343.264 466.313 337.775 465.51 330.284C462.685 303.838 452.016 279.397 437.199 255.651C425.971 237.653 411.643 221.206 392.844 207.459C390.938 206.094 381.376 203.904 378.237 203.124C349.217 195.909 319.1 191.14 289.156 186.866C276.977 185.105 253.899 183.469 243.44 180.146Z" fill="#FB74AB"/>
<path d="M254.293 255.593C254.804 255.614 255.038 255.609 255.579 255.71C269.138 258.243 273.603 292.352 276.573 302.049C277.654 305.577 279.189 309.04 281.464 312.214C290.722 325.151 308.375 327.28 325.513 329.893C333.971 331.182 342.39 332.564 350.69 334.388C358.3 336.06 372.318 339.014 376.261 344.975C383.637 356.116 331.376 377.724 321.88 382.764C317.149 385.276 312.792 388.129 309.085 391.532C296.3 403.269 297.717 415.885 298.967 430.304C299.64 438.074 300.228 445.8 299.778 453.585C299.519 458.083 299.065 462.957 297.094 467.23C296.245 469.073 294.95 471.307 292.458 472.116C279.305 476.393 240.826 445.347 230.8 439.053C225.616 435.801 220.338 433.239 214.25 431.141C207.271 429.352 200.361 428.365 193.028 429.403C172.537 432.298 131.528 460.762 112.346 456.825C109.827 456.306 107.87 455.13 106.67 453.326C99.1415 442.011 120.299 409.029 125.269 396.793C136.844 368.286 116.329 356.646 100.95 333.633C98.7787 330.381 94.7135 324.462 96.794 320.804C101.951 311.738 151.478 315.628 163.892 314.812C170.327 314.39 176.61 312.981 182.565 311.084C214.079 301.037 228.79 261.066 254.293 255.593Z" fill="#534137"/>
<path d="M274.343 151.141C274.859 143.692 270.982 131.566 270.37 123.144C268.302 94.718 271.877 71.916 288.887 46.573C311.889 12.2971 348.983 -1.82331 398.204 0.186927C435.742 1.71986 489.125 15.6645 489.789 50.6964C489.798 56.2212 487.248 62.0417 486.031 67.5347C492.428 68.6473 498.846 69.5875 505.014 71.4278C524.013 77.0997 538.635 85.7898 549.664 99.0122C575.554 130.053 565.554 166.719 525.989 187.092C516.492 191.982 504.59 195.342 493.412 197.062C488.386 197.753 484.354 197.435 479.398 198.923C475.456 197.768 468.02 194.56 463.848 193.032C453.583 189.268 443.168 185.752 432.623 182.49C381.615 167.303 328.497 156.782 274.343 151.141Z" fill="#FECB61"/>
</svg>
