<svg width="608" height="596" viewBox="0 0 608 596" fill="none" xmlns="http://www.w3.org/2000/svg">
<path d="M267.762 194.791C275.188 194.53 281.483 194.02 288.964 194.978C295.84 195.859 303.356 197.967 310.018 198.513C313.237 198.776 320.27 197.57 323.981 197.44C334.764 197.064 350.077 196.837 360.632 198.462L361.2 198.589C365.176 199.458 369.176 199.772 373.177 200.458C404.581 205.839 430.927 218.808 451.621 242.089C455.676 246.739 459.577 251.511 463.305 256.4C465.605 259.433 468.862 264.057 471.389 266.725C480.722 268.181 498.241 276.951 506.163 282.197C537.573 302.997 558.112 335.438 575.301 367.114C593.368 399.93 607.314 436.925 607.022 474.344C606.977 479.705 607.387 488.509 606.178 493.734C601.61 513.508 590.232 549.389 562.071 544.337C554.246 542.933 546.173 539.552 539.591 535.188C528.457 526.892 515.912 515.156 507.856 504.104C499.002 536.758 472.724 568.137 437.771 578.019C432.263 582.355 404.074 587.27 396.391 588.602C336.427 598.572 275.014 597.79 215.353 586.296C203.297 584.009 185.438 580.576 174.551 575.397C164.859 571.792 158.049 568.668 149.331 563.183C129.276 550.565 108.148 521.325 103.872 498.629L103.574 498.339C102.712 498.329 99.3263 504.925 98.5177 506.27C78.8454 538.972 33.1966 570.046 9.38379 520.853C-4.83537 491.48 -1.61512 444.944 10.4982 413.9C15.8511 400.217 22.4135 386.986 30.1157 374.348C35.6674 365.294 43.2133 355.027 49.9103 346.435C66.4618 325.198 83.727 302.163 105.258 285.203C115.605 277.053 125.74 272.144 137.699 266.942C140.472 262.936 147.815 258.802 150.909 254.953C156.422 248.095 161.874 241.857 168.093 235.559C173.573 230.009 177.386 225.13 183.975 220.502C190.224 216.112 196.49 213.465 203.002 209.714C206.167 208.819 213.418 205.667 217.188 204.302C218.694 203.994 220.909 203.231 222.45 202.733C237.244 197.958 252.221 196.117 267.762 194.791Z" fill="black"/>
<path d="M174.551 575.397C173.19 571.476 171.342 567.587 170.333 563.59C166.417 548.089 164.525 529.686 170.152 514.332C189.9 460.439 251.546 434.857 308.001 432.424C311.619 432.271 317.795 433.368 321.396 433.886C342.393 436.805 362.732 442.993 381.594 452.195C404.945 463.318 423.904 481.239 435.678 503.323C447.269 525.299 447.572 544.177 441.895 567.681C441.052 571.166 438.367 575.28 437.771 578.019C432.263 582.355 404.074 587.27 396.391 588.602C336.427 598.572 275.014 597.79 215.353 586.296C203.297 584.009 185.438 580.576 174.551 575.397Z" fill="black"/>
<path d="M240.551 510.032C248.854 509.661 247.206 517.332 250.475 520.152C258.272 526.879 268.829 533.68 278.264 538.181C286.307 542.018 296.265 546.624 305.167 547.871C307.732 547.835 310.569 547.213 312.986 546.389C330.309 540.481 346.975 531.807 360.718 520.166C361.406 519.579 363.245 515.257 363.789 514.189C368.935 504.033 376.995 513.847 378.234 520.592C377.177 521.866 376.475 522.429 375.232 523.494C374.63 523.967 374.006 524.416 373.37 524.846C355.661 536.627 338.943 546.956 318.26 553.574C304.348 558.024 302.475 556.864 288.796 552.167C272.979 546.754 258.82 538.627 245.128 529.481C241.968 527.37 231.82 522.602 233.37 518.254C234.488 515.12 237.519 511.723 240.551 510.032Z" fill="black"/>
<path d="M301.332 452.859C308.675 452.449 318.07 453.091 324.67 456.592C328.625 458.693 329.527 463.227 326.684 466.621C322.893 471.145 316.993 472.507 311.213 473.171C304.499 473.399 293.16 472.666 288.105 468.292C275.56 457.439 293.288 453.481 301.332 452.859Z" fill="black"/>
<path d="M304.011 456.459C307.756 455.934 319.795 457.012 320.318 461.94C320.869 467.178 313.695 469.106 309.45 469.702C304.802 469.777 297.459 469.393 294.126 466.285C285.956 458.664 299.098 456.758 304.011 456.459Z" fill="black"/>
<path d="M471.389 266.725C480.722 268.181 498.241 276.951 506.163 282.197C537.573 302.997 558.112 335.438 575.301 367.114C593.368 399.93 607.314 436.925 607.022 474.344C606.977 479.705 607.387 488.509 606.178 493.734C601.61 513.508 590.232 549.389 562.071 544.337C554.246 542.933 546.173 539.552 539.591 535.188C528.457 526.892 515.912 515.156 507.856 504.104C509.643 499.336 510.676 483.802 509.96 478.764C508.731 470.142 506.042 460.663 504.317 451.856C500.197 431.144 496.806 410.308 494.148 389.384C493.15 381.377 491.587 371.261 491.521 363.372C485.18 361.437 478.866 359.408 472.587 357.291L472.545 365.671C464.944 366.105 457.322 366.245 449.707 366.088C399.069 365.189 361.468 352.447 325.383 318.713C318.184 311.983 313.368 306.026 306.851 299.611C305.549 301.324 304.186 302.994 302.757 304.616C276.362 334.816 250.102 347.119 210.789 357.486C194.806 361.701 174.781 366.111 158.348 367.577C157.778 360.698 157.129 353.825 156.402 346.962C148.055 348.747 139.692 350.47 131.316 352.131C144.034 337.901 154.399 330.155 171.293 320.361C177.976 316.485 184.356 312.557 191.365 309.029C189.849 311.785 187.513 315.211 185.863 318.035C179.543 328.862 177.645 335.907 176.966 347.894C183.567 347.506 190.133 346.695 196.617 345.464C235.824 338.129 286.704 312.739 309.292 280.791C313.381 285.757 317.072 290.403 321.53 295.09C354.741 330.588 401.699 351.89 451.748 354.161C434.153 338.927 421.312 329.999 409.531 309.13C413.18 311.772 416.991 313.648 420.792 315.987C443.18 329.764 470.108 333.784 496.506 335.481C496.757 314.693 494.062 297.24 481.565 279.523C478.697 275.454 473.747 270.668 471.389 266.725Z" fill="black"/>
<path d="M137.699 266.942C134.393 271.747 131.028 276.309 128.491 280.919C117.601 300.713 121.927 321.191 126.425 341.757C127.613 347.187 123.718 361.434 123.536 367.437C120.691 386.048 116.596 405.585 112.541 423.965C106.119 453.078 99.4868 468.435 103.872 498.629L103.574 498.339C102.712 498.329 99.3263 504.925 98.5177 506.27C78.8454 538.972 33.1966 570.046 9.38379 520.853C-4.83537 491.48 -1.61512 444.944 10.4982 413.9C15.8511 400.217 22.4135 386.986 30.1157 374.348C35.6674 365.294 43.2133 355.027 49.9103 346.435C66.4618 325.198 83.727 302.163 105.258 285.203C115.605 277.053 125.74 272.144 137.699 266.942Z" fill="black"/>
<path d="M387.302 365.496C403.599 364.098 422.255 369.554 431.688 382.807C433.42 385.24 437.127 390.787 435.213 393.611C434.594 393.862 434.18 394.133 433.516 393.722C428.053 390.361 423.164 388.898 416.792 387.426C416.864 399.536 416.991 409.894 414.702 421.939C413.807 426.216 412.103 430.518 408.364 433.131C401.069 438.065 391.199 437.28 385.694 430.258C381.814 425.496 380.785 419.301 380.444 413.392C379.959 404.924 379.429 395.504 380.668 387.071C367.331 380.518 374.364 368.118 387.302 365.496Z" fill="black"/>
<path d="M394.793 385.661C402.89 385.367 403.455 393.546 403.479 399.318C403.503 404.402 402.622 409.532 397.182 411.672C393.371 411.861 391.01 410.23 389.791 406.741C387.743 400.865 387.598 388.276 394.793 385.661Z" fill="black"/>
<path d="M220.836 365.564C225.083 365.144 229.041 364.991 233.343 366.069C239.91 367.71 246.556 373.782 244.183 380.742C243.13 383.833 240.494 385.605 237.513 387.038C238.883 395.712 238.118 404.754 237.732 413.532C237.232 424.906 232.353 437.801 217.476 436.003C212.597 435.414 209.769 433.831 206.755 430.176C200.849 421.301 201.246 398.035 201.431 387.472C197.637 388.296 193.489 389.335 189.927 390.885C188.268 391.605 185.113 393.97 183.52 393.888C179.989 391.484 186.232 382.973 188.196 380.658C196.419 370.968 208.091 366.909 220.836 365.564Z" fill="black"/>
<path d="M220.992 385.703C224.775 385.465 227.16 387.292 228.32 390.713C230.362 396.738 230.964 409.099 223.378 411.728C214.953 411.721 214.422 402.927 214.773 396.901C215.048 392.178 215.812 387.472 220.992 385.703Z" fill="black"/>
<path d="M452.788 446.335C458.819 445.974 465.519 446.687 470.724 450.039C476.088 453.498 477.788 460.605 473.375 465.487C469.808 469.435 464.059 470.223 458.806 470.497C433.836 471.393 425.006 448.29 452.788 446.335Z" fill="black"/>
<path d="M148.889 446.342C174.846 444.143 178.845 466.605 152.849 470.272C146.936 470.819 139.802 470.712 134.825 467.175C132.356 465.445 130.756 462.823 130.408 459.934C129.232 450.003 140.75 446.993 148.889 446.342Z" fill="black"/>
<path d="M197.474 155.933C185.887 151.436 166.134 136.296 158.063 126.841C155.735 124.115 151.922 117.999 150.549 114.689C142.895 96.0675 145.42 75.0676 153.212 56.9808C163.696 32.6442 180.712 16.7241 206.477 6.94183C220.618 1.57323 230.634 -0.124633 245.789 0.00702203C264.438 0.169001 281.97 1.41992 299.315 8.55306C324.456 17.4293 340.12 35.4411 349.509 58.7543C351.819 64.4954 354.018 70.5577 355.795 76.5509C356.535 79.0504 357.275 85.6488 359.248 87.1732C362.677 88.1386 368.581 86.5979 372.543 86.8829C392.69 88.3321 405.293 94.6168 415.198 111.262C431.309 138.345 419.983 157.843 393.574 172.31C393.024 172.611 392.239 172.912 391.705 173.248C384.954 177.124 369.985 181.928 361.892 182.935C361.344 187.906 360.597 193.503 360.632 198.462C350.077 196.837 334.764 197.064 323.981 197.44C320.27 197.57 313.237 198.776 310.018 198.513C303.356 197.967 295.84 195.859 288.964 194.978C281.483 194.02 275.188 194.53 267.762 194.791C252.221 196.117 237.244 197.958 222.45 202.733C220.909 203.231 218.694 203.994 217.188 204.302C213.418 205.667 206.167 208.819 203.002 209.714C197.221 201.516 195.222 193.946 200.945 185.077C203.335 181.372 205.809 179.798 208.942 176.892C211.233 173.063 213.94 169.363 216.069 165.359C213.304 162.896 207.447 161.18 203.908 159.458C201.471 158.273 199.827 157.341 197.474 155.933Z" fill="black"/>
<path d="M197.474 155.933C196.064 152.144 192.29 148.128 189.919 144.569C185.159 137.572 179.467 127.1 183.253 118.623C187.374 110.113 198.083 106.8 206.764 110.972C216.403 115.603 223.224 123.485 230.797 130.447C237.368 136.488 248.371 147.958 258.669 143.85C275.842 136.998 273.677 108.797 293.967 105.357C320.491 101.882 315.082 141.378 323.4 155.654C324.825 158.1 326.722 159.959 329.397 161.119C332.151 162.273 334.826 162.785 338.124 162.813C349.763 162.911 384.383 153.456 391.154 165.932C392.135 167.738 391.929 171.078 391.705 173.248C384.954 177.124 369.985 181.928 361.892 182.935C361.344 187.906 360.597 193.503 360.632 198.462C350.077 196.837 334.764 197.064 323.981 197.44C320.27 197.57 313.237 198.776 310.018 198.513C303.356 197.967 295.84 195.859 288.964 194.978C281.483 194.02 275.188 194.53 267.762 194.791C252.221 196.117 237.244 197.958 222.45 202.733C220.909 203.231 218.694 203.994 217.188 204.302C213.418 205.667 206.167 208.819 203.002 209.714C197.221 201.516 195.222 193.946 200.945 185.077C203.335 181.372 205.809 179.798 208.942 176.892C211.233 173.063 213.94 169.363 216.069 165.359C213.304 162.896 207.447 161.18 203.908 159.458C201.471 158.273 199.827 157.341 197.474 155.933Z" fill="black"/>
<path d="M216.069 165.359C220.344 161.628 224.54 158.64 230.394 157.568C241.182 155.593 254.058 158.727 261.593 166.493C263.795 168.797 265.655 171.373 267.122 174.152C269.06 182.142 269.609 186.619 267.762 194.791C252.221 196.117 237.244 197.958 222.45 202.733C220.909 203.231 218.694 203.994 217.188 204.302C213.418 205.667 206.167 208.819 203.002 209.714C197.221 201.516 195.222 193.946 200.945 185.077C203.335 181.372 205.809 179.798 208.942 176.892C211.233 173.063 213.94 169.363 216.069 165.359Z" fill="black"/>
<path d="M203.002 209.714C197.221 201.516 195.222 193.946 200.945 185.077C203.335 181.372 205.809 179.798 208.942 176.892C208.602 189.885 208.72 193.74 217.188 204.302C213.418 205.667 206.167 208.819 203.002 209.714Z" fill="black"/>
<path d="M226.037 165.206C227.501 165.119 229.153 165.194 230.635 165.226C237.631 168.949 235.537 176.459 228.722 179.132C217.518 181.325 217.143 168.754 226.037 165.206Z" fill="black"/>
<path d="M267.122 174.152L351.736 181.998C354.232 182.231 359.688 182.544 361.892 182.935C361.344 187.906 360.597 193.503 360.632 198.462C350.077 196.837 334.764 197.064 323.981 197.44C320.27 197.57 313.237 198.776 310.018 198.513C303.356 197.967 295.84 195.859 288.964 194.978C281.483 194.02 275.188 194.53 267.762 194.791C269.609 186.619 269.06 182.142 267.122 174.152Z" fill="black"/>
</svg>
