<svg width="608" height="596" viewBox="0 0 608 596" fill="none" xmlns="http://www.w3.org/2000/svg">
<path d="M65.1805 186.936C61.2845 188.813 57.822 192.215 54.3331 194.822C46.3218 200.809 31.5172 210.859 21.6296 210.981C19.8752 211.003 18.0958 210.451 16.4628 209.819C12.4678 208.274 2.61801 203.785 0.902005 199.707C-5.75794 183.879 26.3844 101.569 34.3235 83.0257C43.1787 62.3437 56.2916 35.0658 73.3418 20.7139C80.3849 14.7852 92.4807 8.50386 100.999 5.06366C106.697 2.76225 113.482 0.949553 119.361 3.56429C124.547 5.87099 128.458 10.8306 132.353 14.8925C142.302 25.2672 155.1 36.5285 169.552 38.3726C179.276 39.6138 193.612 33.4637 203.37 30.8289C212.303 28.3574 221.31 26.1868 230.377 24.3208C256.676 18.9069 283.861 15.275 310.705 16.5367C327.009 17.3032 343.191 20.0971 359.191 23.3248C374.727 26.4581 390.125 30.3697 405.556 34.0272C416.417 36.6022 427.791 39.8595 438.981 40.1464C441.914 40.2216 444.647 39.7386 447.394 38.6655C459.255 34.0321 470.822 21.8429 480.33 13.1671C485.303 8.62556 490.922 3.25776 497.247 0.954086C500.767 -0.32947 503.837 -0.374448 507.288 1.16499C523.752 8.50613 551.975 51.4614 562.132 68.1291C566.746 75.6974 571.093 83.7094 575.163 91.6047C579.611 100.247 583.508 109.183 586.835 118.356C593.791 137.488 601.911 158.896 605.721 178.858C611.637 209.847 597.453 219.829 571.332 206.275C565.891 203.484 560.639 200.313 555.611 196.784C552.918 194.886 547.759 190.842 545.204 189.457C544.696 217.455 545.063 245.201 543.373 273.123C542.435 288.666 542.464 304.154 537.813 319.238C531.419 339.969 519.863 359.657 508.365 377.777C496.852 395.923 482.606 414.809 467.991 430.419C463.326 435.401 458.03 439.842 453.289 444.532C453.818 449.759 455.039 454.824 455.467 460.131C457.772 488.863 453.18 516.194 435.65 539.631C420.48 559.912 394.772 574.041 370.54 579.102C370.294 579.154 369.895 579.075 369.63 579.034C360.199 581.815 350.299 582.855 341.509 585.429C320.615 597.489 295.546 597.769 272.82 591.461C269.199 590.459 261.173 587.734 258.313 585.863C256.121 584.597 240.648 579.525 237.34 578.425C208.991 572.502 177.85 554.243 161.94 528.791C144.586 501.026 143.486 472.467 149.188 441.04C147.348 437.43 135.283 424.693 131.765 420.585C122.748 410.13 114.108 399.332 105.863 388.205C91.5589 369.004 75.416 346.686 67.6276 323.437C64.4936 314.079 65.4592 299.724 65.5176 289.496L65.5371 262.138L65.1805 186.936Z" fill="black"/>
<path d="M295.386 503.85C278.939 500.644 267.477 492.299 257.877 477.925C245.042 458.706 241.719 430.109 262.996 415.599C285.209 400.447 333.737 400.855 349.585 426.137C363.679 448.618 347.091 483.39 327.104 495.882C320.166 500.452 313.848 502.746 305.924 503.955C302.005 504.167 299.323 504.08 295.386 503.85Z" fill="black"/>
<path d="M276.003 427.622C301.095 425.135 306.736 454.824 281.661 458.759C256.879 461.31 250.745 431.738 276.003 427.622Z" fill="black"/>
<path d="M295.386 503.85C299.323 504.08 302.005 504.167 305.924 503.955L305.916 544.061C319.56 557.55 337.351 571.996 355.791 577.276C360.485 578.618 365.299 578.164 369.63 579.034C360.199 581.815 350.299 582.855 341.509 585.429C320.615 597.489 295.546 597.769 272.82 591.461C269.199 590.459 261.173 587.734 258.313 585.863C256.121 584.597 240.648 579.525 237.34 578.425C256.391 577.646 282.136 558.113 295.415 544.038C295.201 530.813 295.372 517.112 295.386 503.85Z" fill="black"/>
<path d="M258.313 585.863C274.9 577.972 287.294 568.742 300.733 555.883C314.036 569.123 325.509 576.675 341.509 585.429C320.615 597.489 295.546 597.769 272.82 591.461C269.199 590.459 261.173 587.734 258.313 585.863Z" fill="black"/>
<path d="M441.268 151.003C443.099 150.721 445.216 150.813 447.068 150.858C462.978 151.237 474.327 158.302 485.049 170.122C489.852 175.416 494.264 181.451 498.132 187.527C504.519 197.561 521.24 228.328 520.627 239.68C520.537 241.338 520.109 242.896 518.804 243.952C514.364 247.548 493.187 240.547 487.021 239.62C455.054 234.807 426.254 246.579 401.062 266.21C396.498 269.77 392.173 273.647 388.114 277.814C381.317 284.705 373.328 294.595 365.687 300.008C344.282 315.164 351.782 278.082 354 268.814C361.478 237.539 374.988 207.525 394.196 182.239C406.521 166.012 420.966 153.342 441.268 151.003Z" fill="black"/>
<path d="M145.604 153.586C168.062 151.88 183.88 174.922 195.367 192.151C211.384 216.173 226.058 243.35 235.302 271.067C235.957 273.033 240.227 286.909 236.413 289.047C227.692 290.226 213.418 277.758 206.018 273.922C199.548 270.646 192.876 267.824 186.047 265.472C167.347 258.826 147.675 255.648 127.923 256.08C112.842 256.438 101.094 259.622 86.611 262.958C82.5573 263.891 77.845 261.688 77.406 256.873C75.7364 238.573 86.57 219.342 95.1221 203.949C105.479 186.575 126.207 158.241 145.604 153.586Z" fill="black"/>
<path d="M469.488 261.377C484.531 259.386 505.479 264.819 518.833 272.54C521.269 273.948 523.625 276.13 524.27 279.091C524.807 281.634 524.328 284.294 522.944 286.461C517.641 294.739 509.477 288.157 503.293 285.405C488.247 278.705 473.095 278.295 457.261 282.046C463.181 283.377 467.346 284.725 472.399 288.612C502.148 311.494 485.223 369.537 445.626 360.141C441.537 359.17 437.452 356.399 434.041 353.769C419.991 341.338 416.446 320.561 424 303.337C425.022 301.009 426.294 298.828 427.552 296.636C417.946 303.504 409.054 311.403 401.022 320.202C397.252 324.303 390.183 334.376 385.047 335.166C382.854 335.509 380.621 334.924 378.845 333.533C372.675 328.608 374.955 322.485 379.305 317.356C403.07 289.342 432.409 264.689 469.488 261.377Z" fill="black"/>
<path d="M132.889 274.997C153.119 274.147 173.238 278.7 191.89 286.706C198.555 289.564 220.335 299.486 222.641 305.749C223.599 308.349 223.286 310.757 222.174 313.244C221.231 315.345 219.719 317.035 217.563 317.76C211.537 319.79 202.145 312.51 196.826 309.494C201.692 329.874 194.759 350.428 175.651 359.196C173.32 360.043 170.716 360.757 168.264 361.078C160.029 362.08 151.753 359.589 145.3 354.162C131.722 342.936 127.659 322.583 133.713 306.025C135.528 301.062 137.858 297.498 140.98 293.374C126.443 293.423 116.289 295.143 102.669 300.008C98.6183 301.451 93.1556 296.527 93.023 291.473C92.7859 282.479 102.241 280.668 108.807 278.598C116.647 276.266 124.759 275.467 132.889 274.997Z" fill="black"/>
</svg>
