<svg width="608" height="596" viewBox="0 0 608 596" fill="none" xmlns="http://www.w3.org/2000/svg">
<path d="M490.447 0C518.564 7.1494 547.859 23.7041 566.733 46.1743C564.756 49.4206 555.642 59.1175 552.579 62.6022C544.917 71.2509 537.517 80.1364 530.392 89.2455C509.983 115.204 491.766 142.948 475.373 171.706C469.676 181.701 476.31 181.274 483.697 182.597C504.681 186.355 524.57 195.451 541.6 208.364C625.277 271.04 623.287 400.305 566.358 480.25C552.949 499.072 533.896 515.198 513.312 525.401C510.515 526.792 501.975 532.293 499.42 530.162C498.546 525.401 508.289 518.745 511.027 512.919C514.69 505.134 516.775 498.44 518.069 489.855C521.69 465.088 515.476 439.875 500.785 419.726C487.022 400.983 465.339 390.039 442.824 386.66C415.697 382.325 387.992 389.192 365.91 405.714C326.211 435.97 313.126 498.01 344.073 539.59C357.753 557.966 380.792 567.503 402.638 570.633C409.767 571.653 417.004 571.43 424.004 572.335L424.283 572.891C421.141 579.497 395.067 585.774 387.243 587.387C368.424 591.731 343.303 593.576 324.13 594.612C279.946 596.946 235.644 594.873 191.863 588.428C148.786 581.801 102.707 569.551 61.0276 556.47L28.6847 546.056C21.0391 543.567 3.67902 539.384 0.0953066 532.209C-1.20733 529.602 11.2426 507.906 13.0688 504.195C19.4201 491.009 25.2304 477.562 30.4843 463.887C43.2622 431.336 51.8779 395.776 57.9363 361.211C67.1159 308.544 71.8641 254.782 93.4734 205.358C116.754 152.112 159.491 113.761 213.391 93.8808C265.44 74.8212 322.627 76.0218 373.851 97.2493C386.519 102.602 400.498 109.823 410.712 119.168C420.704 128.315 429.614 139.039 438.242 149.506C439.536 151.077 444.871 158.606 447.281 155.352C450.727 150.695 453.208 142.994 455.417 137.395C467.661 106.912 477.05 75.3318 483.464 43.0712C485.074 34.8017 486.485 26.4929 487.692 18.1534C488.337 13.5161 489.332 4.17775 490.447 0Z" fill="#45A84D"/>
</svg>
