<svg width="608" height="596" viewBox="0 0 608 596" fill="none" xmlns="http://www.w3.org/2000/svg">
<path d="M422.095 28.0598C434.878 12.6244 449.095 1.89532 469.324 0.256102C501.925 -2.38538 534.748 15.7926 558.815 36.9675C576.924 52.8985 589.649 70.5535 590.892 95.6202C591.163 101.034 590.996 105.982 589.436 111.24C587.149 115.83 585.259 122.494 582.678 127.726C573.972 145.376 562.992 155.5 547.157 166.061C543.219 168.686 532.352 174.065 530.029 176.421C530.268 179.944 549.769 210.166 552.676 215.094C556.55 221.676 560.243 228.368 563.751 235.162C574.248 255.389 583.076 276.479 590.15 298.211C615.004 374.437 619.42 470.204 554.651 527.66C513.923 563.791 469.776 572.191 418.695 583.368C336.446 601.365 254.36 598.764 172.541 579.794C131.342 570.713 90.1511 559.383 57.2474 531.114C-38.0874 449.217 2.32702 299.666 58.255 206.841C64.4909 196.492 71.6608 187.034 77.1956 175.994C72.8524 172.453 69.1429 171.392 64.7947 168.578C47.1393 157.154 29.6819 141.48 22.2521 120.897C21.0954 117.693 19.4517 114.441 18.9626 111.049C19.3912 102.289 17.9351 88.5757 19.9924 80.106C25.7812 56.2706 50.6155 33.9927 70.3851 21.2971C94.1436 6.03973 121.385 -4.39036 149.589 2.04321C163.874 5.30172 178.496 15.6076 186.188 28.2313C200.019 51.2588 201.106 66.9408 203.12 93.6477C216.099 88.6994 240.046 85.6365 254.186 83.429C270.934 80.8144 290.9 81.8625 307.909 81.4838C323.549 81.1356 339.769 81.7675 355.278 83.8902C362.466 84.7687 369.409 86.3662 376.524 87.6063C379.779 87.8093 402.404 96.0713 403.484 91.0507C408.574 67.3158 404.506 48.1992 422.095 28.0598Z" fill="black"/>
<path d="M422.095 28.0598C434.878 12.6244 449.095 1.89532 469.324 0.256102C501.925 -2.38538 534.748 15.7926 558.815 36.9675C576.924 52.8985 589.649 70.5535 590.892 95.6202C591.163 101.034 590.996 105.982 589.436 111.24C578.646 109.325 566.807 104.5 556.455 100.709C556.012 104.818 555.61 109.967 554.511 113.882C551.415 124.903 542.953 135.255 534.323 142.241C529.88 145.839 518.348 153.755 513.122 154.981C512.661 155.284 510.211 156.778 509.913 156.786C505.392 156.183 497.934 149.843 494.589 147.043C480.254 135.048 465.703 125.222 449.525 116.077C442.92 112.342 433.789 108.531 428.138 103.934C428.31 100.556 428.663 95.4529 429.454 92.2134C430.033 79.8867 434.887 65.3039 440.656 54.4552C442.052 51.8313 445.682 48.6604 446.613 46.3485C441.135 43.4558 426.272 32.6516 422.095 28.0598Z" fill="black"/>
<path d="M422.095 28.0598C434.878 12.6244 449.095 1.89532 469.324 0.256102C501.925 -2.38538 534.748 15.7926 558.815 36.9675C576.924 52.8985 589.649 70.5535 590.892 95.6202C591.163 101.034 590.996 105.982 589.436 111.24C578.646 109.325 566.807 104.5 556.455 100.709C555.397 91.5226 552.36 82.6182 546.646 74.5602C528.307 48.6855 486.606 24.8032 455.605 39.9182C452.603 41.3817 449.353 44.3524 446.613 46.3485C441.135 43.4558 426.272 32.6516 422.095 28.0598Z" fill="black"/>
<path d="M446.613 46.3485C449.353 44.3524 452.603 41.3817 455.605 39.9182C486.606 24.8032 528.307 48.6855 546.646 74.5602C552.36 82.6182 555.397 91.5226 556.455 100.709C556.012 104.818 555.61 109.967 554.511 113.882C551.415 124.903 542.953 135.255 534.323 142.241C529.88 145.839 518.348 153.755 513.122 154.981C515.753 152.751 519.302 151.032 522.023 148.865C541.131 133.668 554.181 107.533 540.376 84.1684C516.811 44.2824 450.822 22.6962 433.332 79.8149C432.388 82.9042 431.004 89.8723 429.454 92.2134C430.033 79.8867 434.887 65.3039 440.656 54.4552C442.052 51.8313 445.682 48.6604 446.613 46.3485Z" fill="black"/>
<path d="M18.9626 111.049C19.3912 102.289 17.9351 88.5757 19.9924 80.106C25.7812 56.2706 50.6155 33.9927 70.3851 21.2971C94.1436 6.03973 121.385 -4.39036 149.589 2.04321C163.874 5.30172 178.496 15.6076 186.188 28.2313C181.912 32.2881 167.257 43.5796 162.035 45.9906C174.543 61.0069 180.869 81.4541 180.008 101.145L179.848 101.391C179.663 100.601 179.515 99.5801 179.122 98.9404C179.119 100.812 179.148 102.685 179.209 104.556C174.741 107.76 169.798 110.163 165.106 112.955C154.029 119.547 142.36 125.419 131.873 132.933C122.04 139.98 113.309 148.268 103.542 155.253C98.6558 158.693 94.3877 154.603 90.1864 152.259C87.1057 150.962 80.17 146.314 77.4126 144.196C67.1191 136.29 57.7903 125.639 54.4163 112.626C53.4471 108.887 53.1497 104.147 52.581 100.216C43.7946 103.692 28.088 110.03 18.9626 111.049Z" fill="black"/>
<path d="M18.9626 111.049C19.3912 102.289 17.9351 88.5757 19.9924 80.106C25.7812 56.2706 50.6155 33.9927 70.3851 21.2971C94.1436 6.03973 121.385 -4.39036 149.589 2.04321C163.874 5.30172 178.496 15.6076 186.188 28.2313C181.912 32.2881 167.257 43.5796 162.035 45.9906C129.864 16.0392 64.057 54.2813 54.4122 92.2087C54.0027 93.8206 53.1438 99.3029 52.581 100.216C43.7946 103.692 28.088 110.03 18.9626 111.049Z" fill="black"/>
<path d="M52.581 100.216C53.1438 99.3029 54.0027 93.8206 54.4122 92.2087C64.057 54.2813 129.864 16.0392 162.035 45.9906C174.543 61.0069 180.869 81.4541 180.008 101.145L179.848 101.391C179.663 100.601 179.515 99.5801 179.122 98.9404C178.003 93.8762 177.315 87.9475 176.043 83.1225C172.959 71.4259 165.061 57.321 154.664 50.899C126.565 33.543 84.7854 56.6516 69.2351 82.2853C63.6271 91.5296 60.6291 103.026 63.2211 113.668C65.9022 124.719 73.4111 136.749 81.2879 144.8C83.3117 146.868 88.5568 150.202 90.1864 152.259C87.1057 150.962 80.17 146.314 77.4126 144.196C67.1191 136.29 57.7903 125.639 54.4163 112.626C53.4471 108.887 53.1497 104.147 52.581 100.216Z" fill="black"/>
<path d="M293.85 125.676C310.544 125.084 327.261 125.816 343.842 127.869C373.003 131.261 415.649 140.754 442.473 153.475C468.632 165.879 499.932 188.574 517.869 212.152C529.717 227.727 535.652 239.356 544.259 256.531C562.273 291.857 571.594 330.726 567.584 370.71C565.568 394.89 553.63 421.37 531.304 432.519C495.741 450.446 449.687 432.552 418.564 411.417C385.497 388.966 354.899 372.166 314.382 367.21C283.652 364.104 240.451 379.536 214.506 395.85C183.746 415.186 155.266 437.299 117.395 439.756C98.2721 440.998 79.84 436.854 65.2513 423.275C47.43 406.688 41.9295 383.125 40.9364 359.269C38.6418 304.538 64.4467 244.646 98.5822 203.676C113.488 185.786 145.816 163.082 166.579 153.667C204.038 136.68 253.087 127.291 293.85 125.676Z" fill="black"/>
<path d="M95.9467 314.311C93.4935 297.492 100.216 270.22 107.601 255.474C116.062 238.58 130.109 222.41 148.258 216.555C176.502 207.441 203.381 226.072 212.046 253.866C212.775 255.71 213.045 256.248 213.354 258.174C220.846 290.095 218.082 328.575 202.159 357.507C194.848 370.789 182.84 380.093 168.359 383.959C132.771 393.467 106.371 367.548 98.4379 332.789C97.0823 326.716 96.2487 320.532 95.9467 314.311Z" fill="black"/>
<path d="M95.9467 314.311C93.4935 297.492 100.216 270.22 107.601 255.474C116.062 238.58 130.109 222.41 148.258 216.555C176.502 207.441 203.381 226.072 212.046 253.866C212.775 255.71 213.045 256.248 213.354 258.174C208.669 260.097 197.223 268.09 190.791 271.142L189.029 272.332C182.176 275.164 169.942 282.693 162.638 286.348C148.856 293.245 136.766 298.581 122.668 304.39C117.591 307.116 102.004 312.651 95.9467 314.311Z" fill="black"/>
<path d="M212.046 253.866C212.775 255.71 213.045 256.248 213.354 258.174C208.669 260.097 197.223 268.09 190.791 271.142C191.929 268.94 205.488 260.087 208.28 258.28C209.721 258.574 209.752 258.691 211.155 258.39C212.114 257.083 211.954 255.579 212.046 253.866Z" fill="black"/>
<path d="M189.029 272.332C192.065 292.966 189.272 325.135 177.578 342.71C174.283 347.661 167.773 352.709 161.914 353.168C137.443 355.078 125.798 336.034 123.392 314.255C123.058 310.973 122.817 307.686 122.668 304.39C136.766 298.581 148.856 293.245 162.638 286.348C169.942 282.693 182.176 275.164 189.029 272.332Z" fill="black"/>
<path d="M396.156 257.926C399.316 244.157 409.085 229.338 420.838 221.961C450.985 203.038 482.469 221.145 498.707 249.723C508.105 266.271 512.358 282.961 513.488 302.035C513.647 304.738 514.044 312.832 513.366 315.447C510.704 355.889 485.281 394.983 441.334 384.005C392.947 371.915 386.175 298.758 396.156 257.926Z" fill="black"/>
<path d="M396.156 257.926C399.316 244.157 409.085 229.338 420.838 221.961C450.985 203.038 482.469 221.145 498.707 249.723C508.105 266.271 512.358 282.961 513.488 302.035C513.647 304.738 514.044 312.832 513.366 315.447L513.244 314.835C512.363 313.815 490.267 306.152 486.579 304.71C484.183 304.205 476.552 300.732 473.844 299.546C455.568 291.575 437.735 282.571 420.431 272.572C413.492 267.818 403.859 263.027 396.156 257.926Z" fill="black"/>
<path d="M420.431 272.572C437.735 282.571 455.568 291.575 473.844 299.546C476.552 300.732 484.183 304.205 486.579 304.71C486.511 308.808 486.208 312.892 485.67 316.953C482.795 337.856 470.138 355.574 446.749 353.071C440.561 352.185 434.616 347.174 431.316 341.991C420.775 325.427 416.883 292.164 420.431 272.572Z" fill="black"/>
<path d="M310.915 388.326C314.97 387.186 322.501 389.109 326.497 390.296C349.601 397.148 379.435 415.339 391.22 437.391C398.778 451.679 400.523 468.451 396.075 484.055C392.341 497.221 385.457 509.497 372.944 515.815C335.524 533.64 292.329 533.135 252.89 522.778C218.376 513.715 204.37 482.498 213.388 448.299C219.457 425.283 242.148 409.057 261.843 399.021C269.187 395.28 291.747 384.946 299.894 388.006C304.957 386.921 306.092 387.473 310.915 388.326Z" fill="black"/>
<path d="M310.915 388.326C314.97 387.186 322.501 389.109 326.497 390.296C349.601 397.148 379.435 415.339 391.22 437.391C398.778 451.679 400.523 468.451 396.075 484.055C392.341 497.221 385.457 509.497 372.944 515.815C335.524 533.64 292.329 533.135 252.89 522.778C218.376 513.715 204.37 482.498 213.388 448.299C219.457 425.283 242.148 409.057 261.843 399.021C269.187 395.28 291.747 384.946 299.894 388.006C291.343 390.917 284.857 393.945 276.755 398.01L276.391 398.358L275.775 398.928C269.067 405.219 262.406 408.464 255.792 415.997C246.46 426.627 240.706 439.552 241.183 454.053C241.534 464.71 245.75 473.935 253.539 481.019C270.222 496.187 290.178 499.405 311.756 498.487C329.096 497.75 347.164 490.587 358.949 477.259C365.901 469.392 368.501 458.985 367.709 448.471C366.394 430.957 356.738 418.19 343.887 407.356C339.99 404.074 335.682 401.306 331.899 397.964L331.465 397.57C324.725 394.237 317.872 391.154 310.915 388.326Z" fill="black"/>
<path d="M331.465 397.57C341.337 397.885 362.895 414.662 369.689 422.126C380.615 434.123 382.582 443.831 382.577 459.959C382.573 478.942 371.154 497.977 354.51 506.46C337.689 515.027 313.067 516.413 294.578 515.713C256.269 514.197 223.618 495.997 226.396 451.846C227.336 436.909 234.32 425.876 245.315 416.048C251.565 410.453 268.678 399.169 276.755 398.01L276.391 398.358L275.775 398.928C269.067 405.219 262.406 408.464 255.792 415.997C246.46 426.627 240.706 439.552 241.183 454.053C241.534 464.71 245.75 473.935 253.539 481.019C270.222 496.187 290.178 499.405 311.756 498.487C329.096 497.75 347.164 490.587 358.949 477.259C365.901 469.392 368.501 458.985 367.709 448.471C366.394 430.957 356.738 418.19 343.887 407.356C339.99 404.074 335.682 401.306 331.899 397.964L331.465 397.57Z" fill="black"/>
</svg>
