<svg width="608" height="596" viewBox="0 0 608 596" fill="none" xmlns="http://www.w3.org/2000/svg">
<path d="M529.379 176.353C531.422 181.285 535.915 188.13 538.813 192.746C543.613 200.236 548.278 207.809 552.812 215.461C567.793 240.92 580.065 267.945 589.432 296.082C609.005 355.162 616.875 425.729 588.595 483.211C577.728 505.298 567.006 517.378 548.608 533.084C516.093 560.847 476.269 570.033 436.453 579.652C348.989 600.785 261.395 600.725 173.921 580.135C132.228 570.322 91.04 560.472 57.5387 531.563C9.75211 492.03 -4.35551 430.483 1.10826 370.017C1.50153 365.763 2.84136 361.314 3.37929 357.052C9.1518 311.349 25.8532 267.324 46.9077 226.969C50.4038 220.137 54.1995 213.473 58.2837 206.998C64.7003 196.913 72.1585 186.471 77.3551 175.797C73.3826 172.933 68.7994 171.232 64.7103 168.637C46.7382 157.212 29.2982 141.167 21.963 120.269C20.8342 117.052 19.3353 113.887 19.0433 110.526C19.06 102.898 18.6495 91.0699 19.4017 83.9C20.9061 69.5649 32.6785 54.1544 42.3625 44.3242C64.6474 21.7021 100.001 0.0580019 132.037 0.336085C150.882 0.4983 166.156 5.42036 179.305 19.6211C181.583 22.0822 184.806 25.5907 186.341 28.5569C191.398 37.145 196.644 47.1606 198.489 57.0187C200.654 68.5916 202.59 81.6058 203.114 93.4058C250.816 81.5734 300.128 78.1205 348.957 83.1909C359.029 84.3264 369.037 85.9949 378.941 88.1918C385.351 89.6424 391.101 91.6492 397.696 92.5669C405.087 93.5958 404.531 89.1836 405.281 82.797C407.121 67.1872 406.954 51.8185 415.334 37.8402C417.142 34.7072 419.403 30.7769 422.165 28.3205C459.024 -19.3151 514.172 0.794909 553.757 32.7096C572.394 47.7353 588.261 66.5569 590.634 91.6539C591.222 97.73 591.633 105.387 589.409 111.185C586.751 117.72 584.78 124.092 581.449 130.34C568.638 154.352 551.302 164.118 529.379 176.353Z" fill="#DA9041"/>
<path d="M422.165 28.3205C459.024 -19.3151 514.172 0.794909 553.757 32.7096C572.394 47.7353 588.261 66.5569 590.634 91.6539C591.222 97.73 591.633 105.387 589.409 111.185C578.131 109.294 567.354 104.909 556.664 100.845C556.076 108.065 555.353 113.173 552.365 119.907C545.376 135.665 527.851 149.991 512.237 155.803C508.137 157.814 504.752 154.807 501.429 152.095C478.421 133.32 454.616 117.358 427.955 104.46C428.421 100.562 428.936 96.6733 429.506 92.7894C431.427 74.4128 435.346 60.8423 446.832 46.5906C440.666 42.8365 426.97 33.5763 422.165 28.3205Z" fill="#E27476"/>
<path d="M422.165 28.3205C459.024 -19.3151 514.172 0.794909 553.757 32.7096C572.394 47.7353 588.261 66.5569 590.634 91.6539C591.222 97.73 591.633 105.387 589.409 111.185C578.131 109.294 567.354 104.909 556.664 100.845C554.801 88.5672 551.049 79.687 543.206 70.0793C528.886 52.5322 504.544 37.5111 482.01 35.7407C466.839 34.5495 458.165 36.6769 446.832 46.5906C440.666 42.8365 426.97 33.5763 422.165 28.3205Z" fill="#593428"/>
<path d="M429.506 92.7894C431.427 74.4128 435.346 60.8423 446.832 46.5906C458.165 36.6769 466.839 34.5495 482.01 35.7407C504.544 37.5111 528.886 52.5322 543.206 70.0793C551.049 79.687 554.801 88.5672 556.664 100.845C556.076 108.065 555.353 113.173 552.365 119.907C545.376 135.665 527.851 149.991 512.237 155.803C513.684 153.833 518.548 151.4 520.794 149.792C535.178 139.507 549.042 118.35 545.779 99.4727C541.755 76.1878 519.556 57.9502 499.128 49.8256C470.93 38.6003 444.292 47.2811 434.18 77.8007C432.561 82.6857 431.246 88.0342 429.506 92.7894Z" fill="#C45956"/>
<path d="M19.0433 110.526C19.06 102.898 18.6495 91.0699 19.4017 83.9C20.9061 69.5649 32.6785 54.1544 42.3625 44.3242C64.6474 21.7021 100.001 0.0580019 132.037 0.336085C150.882 0.4983 166.156 5.42036 179.305 19.6211C181.583 22.0822 184.806 25.5907 186.341 28.5569C178.765 34.823 170.512 41.0984 162.143 46.2012C173.385 59.2572 177.18 72.8046 179.582 89.9345C179.965 92.6643 180.971 101.6 180.224 104.047C180.07 103.579 179.853 103.032 179.782 102.564C175.332 109.257 145.322 124.027 137.207 128.936C125.777 135.851 111.162 151.831 100.371 157.013C97.3948 156.09 94.8281 155.196 92.2727 153.291C88.2089 151.724 82.9359 147.98 79.1876 145.454C66.7589 136.713 56.0018 124.064 53.6611 108.362C53.3433 106.23 53.2575 101.901 51.8132 100.655C44.1372 103.954 27.0063 110.652 19.0433 110.526Z" fill="#E27476"/>
<path d="M19.0433 110.526C19.06 102.898 18.6495 91.0699 19.4017 83.9C20.9061 69.5649 32.6785 54.1544 42.3625 44.3242C64.6474 21.7021 100.001 0.0580019 132.037 0.336085C150.882 0.4983 166.156 5.42036 179.305 19.6211C181.583 22.0822 184.806 25.5907 186.341 28.5569C178.765 34.823 170.512 41.0984 162.143 46.2012C129.35 14.9169 57.4266 57.4404 53.1869 98.7543C53.0427 100.159 52.7873 100.089 51.8132 100.655C44.1372 103.954 27.0063 110.652 19.0433 110.526Z" fill="#593428"/>
<path d="M51.8132 100.655C52.7873 100.089 53.0427 100.159 53.1869 98.7543C57.4266 57.4404 129.35 14.9169 162.143 46.2012C173.385 59.2572 177.18 72.8046 179.582 89.9345C179.965 92.6643 180.971 101.6 180.224 104.047C180.07 103.579 179.853 103.032 179.782 102.564C177.057 85.4573 175.867 74.3293 164.573 59.9663C158.161 51.7351 148.797 46.4839 138.578 45.3901C107.538 42.3266 66.6097 68.6425 62.5522 102.017C60.6672 117.52 70.7477 132.509 79.9236 143.804L79.1876 145.454C66.7589 136.713 56.0018 124.064 53.6611 108.362C53.3433 106.23 53.2575 101.901 51.8132 100.655Z" fill="#C55757"/>
<path d="M79.1876 145.454L79.9236 143.804C84.1234 147.799 89.0664 150.283 92.2727 153.291C88.2089 151.724 82.9359 147.98 79.1876 145.454Z" fill="#92512E"/>
<path d="M41.0497 360.702C40.5665 356.223 40.859 347.739 41.1198 343.128C42.664 315.826 48.5124 294.316 59.1669 269.766C76.4917 228.1 98.2835 197.094 135.491 172.14C167.323 150.788 193.029 141.746 230.473 133.83C284.931 121.891 341.358 123.184 395.241 137.603C411.329 141.764 428.213 146.844 443.324 153.945C457.735 160.72 471.712 170.393 484.65 179.727C520.433 205.538 542.745 247.065 557.816 288.272C563.114 304.818 566.296 319.185 567.906 336.509C571.974 380.286 561.008 430.731 511.609 438.827C477.842 444.362 446.841 428.841 418.661 411.452C407.469 404.269 396.647 396.107 384.718 390.158C360.945 378.303 328.973 365.754 302.095 366.718C272.777 367.771 240.514 381.136 215.182 395.528C206.635 400.727 198.853 406.288 190.396 411.769C155.309 434.51 103.137 455.395 66.6793 424.561C47.9523 408.724 42.6753 384.857 41.0497 360.702Z" fill="#593428"/>
<path d="M95.9604 314.347C92.3885 275.281 115.576 219.549 158.276 214.483C183.929 211.443 208.021 233.119 213.376 258.049C215.022 264.529 216.177 271.133 216.832 277.793C219.494 306.153 214.109 343.657 196.376 365.999C178.785 388.162 143.303 393.417 121.832 373.938C103.976 357.738 97.8495 338.062 95.9604 314.347Z" fill="#FEFEFE"/>
<path d="M95.9604 314.347C92.3885 275.281 115.576 219.549 158.276 214.483C183.929 211.443 208.021 233.119 213.376 258.049C205.852 263.236 196.755 267.731 188.943 272.528C180.464 276.732 171.429 282.062 162.808 286.493C149.666 293.144 136.262 299.243 122.63 304.767C116.776 307.247 101.782 313.114 95.9604 314.347Z" fill="#DA9041"/>
<path d="M188.943 272.528C189.068 273.14 189.268 274.099 189.326 274.748C191.276 296.411 189.666 325.787 176.909 343.737C173.216 348.725 167.247 353.006 161.058 353.393C146.221 354.32 133.285 345.881 127.685 331.802C123.879 322.229 123.44 314.764 122.63 304.767C136.262 299.243 149.666 293.144 162.808 286.493C171.429 282.062 180.464 276.732 188.943 272.528Z" fill="#5254A7"/>
<path d="M513.404 315.46C513.146 320.774 512.477 326.059 511.406 331.265C507.482 349.944 497.641 368.139 481.752 378.439C456.926 394.534 421.744 383.835 407.591 357.984C391.431 328.455 388.497 290.353 396.209 257.975C397.556 251.121 401.674 243.357 405.38 237.508C415.822 221.027 437.38 210.71 456.443 215.303C492.294 223.947 511.849 265.854 513.431 300.786C513.571 303.674 514.181 313.045 513.404 315.46Z" fill="#FEFEFE"/>
<path d="M396.209 257.975C397.556 251.121 401.674 243.357 405.38 237.508C415.822 221.027 437.38 210.71 456.443 215.303C492.294 223.947 511.849 265.854 513.431 300.786C513.571 303.674 514.181 313.045 513.404 315.46L513.286 314.885C512.174 313.629 505.886 311.928 503.897 311.242C498.129 309.226 492.398 307.113 486.697 304.902C463.888 295.669 441.715 284.857 420.329 272.542C419.579 271.944 413.942 268.732 412.88 268.125C407.071 264.798 401.787 261.697 396.209 257.975Z" fill="#DA9041"/>
<path d="M486.697 304.902L486.67 305.532C485.951 319.865 483.791 335.071 472.847 345.06C462.233 354.746 442.949 357.637 433.479 344.91C419.073 325.555 418.458 295.822 420.329 272.542C441.715 284.857 463.888 295.669 486.697 304.902Z" fill="#5254A7"/>
<path d="M312.035 388.733C314.792 387.734 318.201 388.222 321.071 388.932C347.208 395.561 373.431 411.316 389.148 433.796C404.526 455.792 400.584 499.562 376.667 513.665C344.175 532.825 299.563 532.549 263.458 525.538C224.128 517.901 205.538 493.386 212.375 452.154C215.557 433.621 232.994 416.288 248.194 406.877C258.445 400.529 285.8 385.307 297.71 388.551C303.889 387.037 305.937 387.05 312.035 388.733Z" fill="#593428"/>
<path d="M312.035 388.733C314.792 387.734 318.201 388.222 321.071 388.932C347.208 395.561 373.431 411.316 389.148 433.796C404.526 455.792 400.584 499.562 376.667 513.665C344.175 532.825 299.563 532.549 263.458 525.538C224.128 517.901 205.538 493.386 212.375 452.154C215.557 433.621 232.994 416.288 248.194 406.877C258.445 400.529 285.8 385.307 297.71 388.551C290.73 391.222 284.745 394.146 277.987 397.379L277.52 397.839C273.338 401.91 267.663 405.344 263.087 409.126C250.526 419.511 241.957 433.826 241.215 450.505C239.739 483.68 275.193 498.751 302.583 498.63C317.785 498.931 331.554 496.73 344.862 488.766C358.441 480.64 367.771 469.785 367.952 453.067C368.2 430.367 354.495 414.964 337.566 402.462C335.916 401.245 333.326 399.26 331.902 397.866C325.921 394.677 318.264 391.391 312.035 388.733Z" fill="#C07436"/>
<path d="M331.902 397.866C338.05 398.422 347.841 404.856 353.342 408.13C400.847 436.399 389.527 503.798 333.809 513.036C291.914 519.983 229.256 517.738 226.476 459.634C225.912 447.843 227.711 438.081 234.418 428.371C242.123 416.813 264.611 399.79 277.987 397.379L277.52 397.839C273.338 401.91 267.663 405.344 263.087 409.126C250.526 419.511 241.957 433.826 241.215 450.505C239.739 483.68 275.193 498.751 302.583 498.63C317.785 498.931 331.554 496.73 344.862 488.766C358.441 480.64 367.771 469.785 367.952 453.067C368.2 430.367 354.495 414.964 337.566 402.462C335.916 401.245 333.326 399.26 331.902 397.866Z" fill="#92512E"/>
</svg>
