<svg width="209" height="221" viewBox="0 0 209 221" fill="none" xmlns="http://www.w3.org/2000/svg">
<path d="M94.6785 80.1107C94.7112 77.1251 94.4925 61.4687 95.0077 60.0421C97.3099 59.4785 104.022 59.7687 106.693 59.7009C108.277 59.6607 112.364 59.568 113.81 59.6605C114.26 65.8814 113.777 73.6808 113.702 79.9935C118.022 80.1742 122.759 79.7982 127.114 79.9044C128.897 79.9478 131.073 79.7643 132.802 80.0446C132.655 84.1769 132.696 88.3905 132.61 92.5338C132.586 93.7674 132.316 98.4063 132.479 99.1696C134.131 99.5132 137.65 99.4516 139.501 99.4799L152.414 99.6654C153.809 99.466 155.234 99.4862 156.639 99.5486C161.284 99.7549 166.103 99.4441 170.73 99.7369C170.853 106.084 170.89 113.539 170.859 119.908C163.964 119.936 155.905 120.254 149.135 120.06C143.694 120.134 138.11 119.961 132.659 119.87C132.42 125.978 132.825 132.298 132.835 138.42C132.837 138.898 132.766 139.285 132.463 139.645C131.195 140.248 120.445 140.064 118.335 140.182C117.296 140.242 114.971 139.939 113.9 140.332C113.589 144.061 113.624 156 114.059 159.475C112.203 159.674 107.282 159.554 105.243 159.559C103.053 159.561 97.2098 159.705 95.2735 159.35C94.3534 157.82 94.8973 142.753 95.1406 140.457C89.203 140.24 83.1062 140.519 77.1631 140.351C75.7806 140.313 76.0394 138.662 75.8805 137.642C75.2714 133.738 76.9045 123.484 76.012 120.347C74.9703 119.474 69.5858 120.011 67.7426 119.948C64.7016 120.175 60.487 120.09 57.389 120.104L37.8067 120.168C37.7484 113.954 37.3035 107.693 37.9049 101.477C37.9546 100.367 38.5442 99.7474 39.6608 99.9011C45.0095 100.638 52.5335 99.0414 57.5692 100.067C61.3758 98.9304 71.7234 99.7135 76.1529 99.5974C76.5714 95.6963 75.8601 83.0605 76.61 80.2294C77.9579 79.3871 92.3354 80.0633 94.6785 80.1107Z" fill="#F9F443"/>
<path d="M94.6785 80.1107C94.7112 77.1251 94.4925 61.4687 95.0077 60.0421C97.3099 59.4785 104.022 59.7687 106.693 59.7009C108.277 59.6607 112.364 59.568 113.81 59.6605C114.26 65.8814 113.777 73.6808 113.702 79.9935C112.048 80.127 109.152 80.0364 107.408 80.0472L94.6785 80.1107Z" fill="#F3DB1B"/>
<path d="M37.8067 120.168C37.7484 113.954 37.3035 107.693 37.9049 101.477C37.9546 100.367 38.5442 99.7474 39.6608 99.9011C45.0095 100.638 52.5335 99.0414 57.5692 100.067L56.4986 100.334L56.4712 119.855C59.0296 119.853 65.4548 119.663 67.7426 119.948C64.7016 120.175 60.487 120.09 57.389 120.104L37.8067 120.168Z" fill="#F3DB1B"/>
<path d="M152.414 99.6654C153.809 99.466 155.234 99.4862 156.639 99.5486C161.284 99.7549 166.103 99.4441 170.73 99.7369C170.853 106.084 170.89 113.539 170.859 119.908C163.964 119.936 155.905 120.254 149.135 120.06C149.705 119.743 151.631 119.851 152.402 119.854C152.85 114.151 152.153 105.851 152.414 99.6654Z" fill="#F3DB1B"/>
<path d="M95.1406 140.457C99.2687 140.504 103.395 140.527 107.523 140.523C109.052 140.523 112.551 140.579 113.9 140.332C113.589 144.061 113.624 156 114.059 159.475C112.203 159.674 107.282 159.554 105.243 159.559C103.053 159.561 97.2098 159.705 95.2735 159.35C94.3534 157.82 94.8973 142.753 95.1406 140.457Z" fill="#F3DB1B"/>
<path d="M113.06 178.802L113.683 178.995C114.268 180.034 114.002 187.227 113.992 189.071L113.957 207.169C113.945 211.086 113.804 215.905 114.084 219.732C107.666 219.814 101.743 219.651 95.2183 220.211C94.5068 219.146 94.6703 216.218 94.6417 214.791C94.5702 210.139 94.5599 205.486 94.6172 200.832C94.6274 198.185 94.4148 180.221 94.8278 179.517C96.3613 179.04 98.3609 179.262 99.9536 179.193C103.73 179.028 109.103 179.489 112.745 178.858L113.06 178.802Z" fill="#F3DB1B"/>
<path d="M94.3207 0.13568C96.0914 0.0607665 97.8804 0.285513 99.6285 0.266838C104.354 0.216395 109.175 0.12109 113.898 0.137403C113.945 9.62507 113.937 19.1129 113.869 28.6004C113.861 31.319 114.121 37.9393 113.91 40.2554C111.324 40.1743 96.5964 40.5476 95.0834 40.1075C94.4189 38.1716 94.6008 31.7369 94.5906 29.35L94.4945 12.9558C94.5047 9.23182 94.6663 4.07113 94.3535 0.501019L94.3207 0.13568Z" fill="#F3DB1B"/>
<path d="M38.3072 159.228C39.7781 159.063 43.3315 159.207 44.9662 159.23C49.2989 159.29 53.3726 159.314 57.707 159.164C57.0181 165.449 57.3375 171.433 57.2496 177.716C57.242 178.259 57.2328 178.63 56.9128 179.04C54.472 180.29 43.3346 179.092 40.1294 179.549C37.7777 179.886 38.5735 181.904 38.544 184.081L38.3494 192.892C38.3267 194.206 38.5127 197.975 37.837 198.877C31.7152 199.317 25.7049 198.743 19.3332 199.398C19.1463 196.932 18.9016 181.056 19.3385 179.506C21.5347 178.826 35.078 179.272 37.9208 179.504C38.066 176.37 37.4681 160.741 38.3072 159.228Z" fill="#F3DB1B"/>
<path d="M189.549 0.536012C195.961 0.506604 202.37 0.512186 208.78 0.552755C208.576 6.13631 208.797 14.4552 208.351 19.6328C206.844 21.4739 191.663 19.2739 190.221 20.8274C189.399 21.7128 189.902 37.8582 189.553 40.1352C188.586 40.2498 187.608 40.1839 186.637 40.1775C181.329 40.1417 176.022 40.0564 170.718 40.36C170.53 38.4459 170.342 21.1242 170.681 20.3846C172.854 19.6897 186.251 20.21 189.506 20.145C189.271 16.741 189.393 12.5132 189.352 9.0586C189.33 7.12715 189.258 2.26805 189.549 0.536012Z" fill="#F3DB1B"/>
<path d="M192.286 198.995C195.067 198.602 205.521 198.954 208.809 199.04C208.703 205.992 208.709 212.943 208.827 219.895C207.756 219.932 206.55 219.898 205.466 219.889C203.264 219.79 190.52 220.406 189.639 219.606C188.831 217.212 189.318 202.408 189.651 199.263C190.479 199.145 191.444 199.076 192.286 198.995Z" fill="#F3DB1B"/>
<path d="M189.89 99.5778L208.731 99.4288C208.964 104.598 208.555 113.87 208.551 119.39C208.551 119.632 208.228 119.737 207.964 119.892C205.439 120.036 191.287 120.318 189.643 119.902C189.056 119.18 189.262 116.743 189.305 115.746C189.516 110.784 189.291 105.832 189.403 100.876C189.42 100.143 189.485 100.144 189.89 99.5778Z" fill="#F3DB1B"/>
<path d="M54.7953 39.9581C55.7327 39.889 56.9221 39.6829 57.6354 40.2741C57.725 40.8371 57.4287 45.1778 57.3481 45.9549C57.1263 48.0995 57.7736 58.7085 56.9155 59.7863C55.0676 60.2768 43.4795 60.2521 40.6759 60.2658C39.8546 60.3967 38.7469 60.5215 38.0106 60.0776C37.13 58.2348 37.9219 43.15 38.3191 40.0775C43.7194 39.9163 49.5455 40.238 54.7953 39.9581Z" fill="#F3DB1B"/>
<path d="M1.08012 99.5583C4.79253 99.9084 16.682 99.2584 19.2316 100.05C19.3594 100.201 19.3868 100.213 19.4694 100.43C19.4939 100.495 19.2455 119.322 19.1363 119.593C19.0171 119.891 18.7505 119.904 18.4853 120.016C12.9409 119.805 5.93036 120.114 0.228129 120.17C-0.232114 114.643 0.124872 106.91 0.254909 101.247C0.277809 100.257 0.450581 100.129 1.08012 99.5583Z" fill="#F3DB1B"/>
<path d="M1.5602 199.196C5.41512 199.014 15.5844 199.083 19.0848 199.701C18.8595 204.198 19.2206 209.487 19.0597 214.042C18.9985 215.778 19.1746 217.923 18.9306 219.61C18.3365 220.089 18.4125 219.921 17.4636 219.923C13.9569 219.913 10.4473 219.91 6.94225 219.915C5.11886 219.917 2.05663 220.241 0.414601 219.921C0.140214 218.174 0.151868 214.587 0.133467 212.745C0.0978904 208.467 0.0980977 204.189 0.133879 199.909C0.713118 199.267 0.599645 199.46 1.5602 199.196Z" fill="#F3DB1B"/>
<path d="M22.3313 19.9649C24.6697 19.7187 36.1866 19.7013 38.2772 20.1939C38.3347 23.716 38.2707 27.2225 38.2848 30.7418C38.2979 33.9536 38.4252 37.0539 38.2365 40.2722C37.0102 40.2301 35.7648 40.2462 34.5362 40.2473C31.5457 40.2443 28.5551 40.2591 25.5646 40.2915C24.5128 40.313 19.8691 40.7427 19.3271 40.1183C18.8294 37.5532 19.0597 23.0048 19.5551 20.3283C20.4377 20.1723 21.4335 20.0752 22.3313 19.9649Z" fill="#F3DB1B"/>
<path d="M187.985 178.817C188.721 178.862 188.721 178.89 189.377 179.152C189.733 179.62 189.774 179.721 189.782 180.371C189.862 186.613 189.444 192.888 189.592 199.132C184.879 199.624 177.633 199.349 172.443 199.604C171.877 199.699 170.795 199.752 170.845 198.986C171.208 193.42 170.728 187.532 170.748 181.99C170.765 177.95 174.028 179.178 176.596 179.126C180.368 179.051 184.218 179.268 187.985 178.817Z" fill="#F3DB1B"/>
<path d="M17.9218 0.0221356C18.3903 -0.0265906 18.3708 -0.00168948 18.8217 0.16574C19.4486 1.21582 18.8382 16.3678 19.2668 19.6867C14.8608 20.3217 6.10539 20.3809 1.23921 20.6125C-0.0482882 20.1289 -0.0276446 17.7235 0.107504 16.4841C0.594736 12.0155 -0.487477 4.76146 0.643605 0.747022C1.07727 0.332742 1.43569 0.285942 2.05357 0.286371C7.33011 0.290235 12.6506 0.393486 17.9218 0.0221356Z" fill="#F3DB1B"/>
<path d="M152.322 39.8585C155.939 40.1395 167.614 39.7179 170.023 40.9342C170.162 41.1632 170.387 41.5977 170.411 42.068C170.705 47.9626 170.311 53.9851 170.607 59.9127C170.491 60.084 170.372 60.2555 170.256 60.4268C164.404 60.3749 157.935 60.2886 152.12 60.5258C151.644 57.5904 151.656 42.5936 152.322 39.8585Z" fill="#F3DB1B"/>
<path d="M152.091 159.026C158.027 159.224 164.478 159.078 170.448 159.112C170.472 159.541 170.499 161.731 170.454 162.04C170.115 164.274 170.832 177.729 170.096 179.036C167.383 179.358 162.789 179.049 159.847 179.186C158.274 179.259 153.4 179.47 152.259 179.283C151.539 177.428 151.533 159.784 152.091 159.026Z" fill="#F3DB1B"/>
</svg>
