<svg width="209" height="221" viewBox="0 0 209 221" fill="none" xmlns="http://www.w3.org/2000/svg">
<path d="M89.1274 94.4618C89.5074 92.3159 88.9341 89.3979 89.061 87.6219C89.3312 83.8517 88.5318 65.3908 89.921 63.5491C93.4291 62.2831 101.422 63.3311 105.476 63.2111C108.16 63.1317 117.046 62.5982 119.055 63.5067C119.661 66.2847 119.132 69.707 119.214 72.3336C119.353 76.799 118.733 90.8717 119.377 94.5216C123.26 94.5241 147.18 93.187 148.969 94.7521C150.597 98.2149 149.156 108.912 149.251 113.248C149.318 116.308 149.899 122.405 149.522 125.138C148.563 126.656 140.832 126.228 138.836 126.262C132.672 126.367 126.481 126.189 120.314 126.397C120.242 136.639 119.641 147.821 119.956 157.78C113.533 157.401 106.957 157.663 100.532 157.622C98.3054 157.607 91.9469 157.979 90.0344 157.537C88.2162 154.141 89.6236 138.69 89.3034 133.915C89.2223 132.704 89.3687 128.091 89.6243 126.876C89.1146 126.593 88.6855 126.501 88.1311 126.328C86.9926 126.693 61.6275 126.758 60.009 126.362C58.84 123.045 58.8229 97.254 60.2374 94.4074C62.9785 93.3941 85.365 94.0749 88.8042 94.5447L89.1274 94.4618Z" fill="#F8EE46"/>
<path d="M89.6243 126.876C98.4646 125.751 111.123 126.826 120.314 126.397C120.242 136.639 119.641 147.821 119.956 157.78C113.533 157.401 106.957 157.663 100.532 157.622C98.3054 157.607 91.9469 157.979 90.0344 157.537C88.2162 154.141 89.6236 138.69 89.3034 133.915C89.2223 132.704 89.3687 128.091 89.6243 126.876Z" fill="#F3DC1B"/>
<path d="M88.1311 126.328C86.9926 126.693 61.6275 126.758 60.009 126.362C58.84 123.045 58.8229 97.254 60.2374 94.4074C62.9785 93.3941 85.365 94.0749 88.8042 94.5447C89.0918 97.5219 88.7542 105.736 88.641 109.031C88.4779 113.779 88.709 121.914 88.1311 126.328Z" fill="#F3DC1B"/>
<path d="M119.377 94.5216C123.26 94.5241 147.18 93.187 148.969 94.7521C150.597 98.2149 149.156 108.912 149.251 113.248C149.318 116.308 149.899 122.405 149.522 125.138C148.563 126.656 140.832 126.228 138.836 126.262C132.672 126.367 126.481 126.189 120.314 126.397C119.273 115.984 120.109 105.463 119.84 95.0287C119.686 94.8595 119.531 94.6904 119.377 94.5216Z" fill="#F3DC1B"/>
<path d="M89.1274 94.4618C89.5074 92.3159 88.9341 89.3979 89.061 87.6219C89.3312 83.8517 88.5318 65.3908 89.921 63.5491C93.4291 62.2831 101.422 63.3311 105.476 63.2111C108.16 63.1317 117.046 62.5982 119.055 63.5067C119.661 66.2847 119.132 69.707 119.214 72.3336C119.353 76.799 118.733 90.8717 119.377 94.5216C109.507 94.4733 98.9114 94.8107 89.1274 94.4618Z" fill="#F3DC1B"/>
<path d="M1.18499 93.9193C1.66807 93.8881 8.17747 93.9276 8.66543 93.9485C13.8936 94.1724 25.8313 93.3041 30.4197 94.3675C31.1876 95.412 30.9957 108 30.9216 109.945C30.8048 113 31.4797 124.576 30.1507 126.325C25.1631 126.338 4.16521 127.451 0.929723 125.867C-0.670179 124.236 0.336847 108.74 0.0840227 105.424C-0.0895085 103.147 -0.0553463 95.5178 1.18499 93.9193Z" fill="#F3DC1B"/>
<path d="M89.8948 0.0464874C91.0717 -0.00978811 92.2525 0.0226894 93.43 0.044878C102.241 0.210489 111.059 -0.166078 119.868 0.0956834L119.539 22.8982C119.519 25.5075 119.61 28.0441 119.712 30.653C119.742 31.4235 119.055 31.7824 118.523 32.2101C110.347 31.8341 97.625 32.1895 89.4111 32.4284C88.9011 28.4209 88.5337 2.12129 89.8948 0.0464874Z" fill="#F3DC1B"/>
<path d="M179.682 93.9045C188.797 93.7032 199.717 93.6665 208.818 93.9012C208.851 95.5136 208.793 97.0199 208.72 98.6329C208.327 107.503 208.366 116.416 208.479 125.293C208.485 125.851 208.253 126.198 207.982 126.638C203.377 126.642 198.781 126.423 194.115 126.521C190.663 126.594 181.925 127.137 179.172 126.532C178.265 124.332 178.931 113.681 178.985 110.811C179.045 107.677 178.446 95.594 179.682 93.9045Z" fill="#F3DC1B"/>
<path d="M118.97 187.925L119.96 188.134C120.073 188.298 120.186 188.459 120.298 188.623C119.93 195.546 119.359 213.458 119.724 219.577C113.068 220.478 99.228 219.899 91.7161 220.211L90.5041 220.079C90.1006 219.716 89.9481 219.687 89.7923 219.124C89.2763 217.262 89.537 189.716 90.154 188.735C90.4154 188.32 91.9348 188.262 92.4279 188.237C101.238 187.748 110.118 188.517 118.97 187.925Z" fill="#F3DC1B"/>
</svg>
