<svg width="209" height="221" viewBox="0 0 209 221" fill="none" xmlns="http://www.w3.org/2000/svg">
<path d="M89.0728 32.0641C90.2924 23.6171 88.6547 11.0417 89.3751 2.25141C89.5714 -0.145199 92.1308 0.106501 93.8888 0.317757C100.588 1.12299 113.777 -1.13742 119.722 0.826648C119.811 1.76452 119.584 10.45 119.478 12.1197C119.153 17.217 119.948 27.3217 119.289 31.7138L120.041 32.1256C122.53 31.1482 146.345 31.078 148.625 32.1275C149.937 34.011 149.036 58.5268 149.158 63.1182L149.787 63.5374C156.402 62.9664 171.885 62.8267 178.612 63.2408C178.416 72.7906 178.404 84.1681 178.729 93.684L178.852 93.9629C182.323 93.8244 206.815 93.3715 208.575 94.4152C209.165 99.4986 208.529 108.799 208.578 114.28C208.606 117.064 208.882 123.817 208.753 126.208L179.236 126.257L178.837 126.652C178.941 128.651 178.373 156.612 178.364 156.642C175.734 157.528 154.078 157.146 149.598 157.327L149.209 157.696C149.28 161.588 149.401 185.483 148.671 187.861C145.7 189.876 124.579 188.01 120.057 188.851L119.789 189.077C120.157 193.548 119.991 216.055 119.061 219.549C117.254 220.468 93.617 220.161 89.6251 220.164C89.5886 210.824 89.0922 197.964 89.65 189.042L88.8861 188.734C84.7756 188.518 60.9425 188.637 60.0182 188.065C59.1228 185.163 59.5534 162.601 59.5894 158.327L59.1848 158.013C57.7552 157.221 33.7126 158.03 30.1855 158.327C29.7748 153.164 29.9904 146.473 30.0414 141.213C30.0835 136.862 30.0255 130.851 30.3855 126.597L29.5195 126.293C21.3758 126.005 12.8094 126.946 4.62327 126.71C3.04773 126.665 1.47464 126.962 0.450798 125.578C0.0318001 122.777 -0.387507 96.4002 0.642478 94.8522C2.38543 94.4022 6.41568 94.5594 8.42404 94.4944C15.8487 94.2534 22.0535 94.0311 29.4283 94.7497L30.1609 94.387L29.964 74.582C29.9431 70.9612 29.7868 66.725 30.0531 63.1709C39.7613 63.5979 49.5294 63.1398 59.3485 63.5708L59.5857 63.4035C59.5215 58.8781 59.1222 35.9897 59.8013 32.8454C61.4786 31.4556 84.3407 32.3113 88.0634 32.2181L89.0728 32.0641Z" fill="#F9F241"/>
<path d="M178.852 93.9629C182.323 93.8244 206.815 93.3715 208.575 94.4152C209.165 99.4986 208.529 108.799 208.578 114.28C208.606 117.064 208.882 123.817 208.753 126.208L179.236 126.257C178.4 122.993 178.671 98.2423 178.852 93.9629Z" fill="#F4DB13"/>
<path d="M29.5195 126.293C21.3758 126.005 12.8094 126.946 4.62327 126.71C3.04773 126.665 1.47464 126.962 0.450798 125.578C0.0318001 122.777 -0.387507 96.4002 0.642478 94.8522C2.38543 94.4022 6.41568 94.5594 8.42404 94.4944C15.8487 94.2534 22.0535 94.0311 29.4283 94.7497C31.166 97.2663 29.682 113.443 29.9671 117.76C30.0445 118.932 29.8651 124.098 29.6851 125.351C29.6403 125.668 29.5853 125.982 29.5195 126.293Z" fill="#F4DB13"/>
<path d="M89.0728 32.0641C90.2924 23.6171 88.6547 11.0417 89.3751 2.25141C89.5714 -0.145199 92.1308 0.106501 93.8888 0.317757C100.588 1.12299 113.777 -1.13742 119.722 0.826648C119.811 1.76452 119.584 10.45 119.478 12.1197C119.153 17.217 119.948 27.3217 119.289 31.7138L99.8596 32.0719C97.7081 32.1214 90.7356 32.4168 89.0728 32.0641Z" fill="#F4DB13"/>
<path d="M89.65 189.042C95.9454 188.877 102.242 188.796 108.54 188.802C111.539 188.793 116.9 188.67 119.789 189.077C120.157 193.548 119.991 216.055 119.061 219.549C117.254 220.468 93.617 220.161 89.6251 220.164C89.5886 210.824 89.0922 197.964 89.65 189.042Z" fill="#F4DB13"/>
<path d="M30.3855 126.597C39.4683 126.428 51.054 125.891 59.977 126.302C59.9199 131.411 60.1598 154.668 59.1848 158.013C57.7552 157.221 33.7126 158.03 30.1855 158.327C29.7748 153.164 29.9904 146.473 30.0414 141.213C30.0835 136.862 30.0255 130.851 30.3855 126.597Z" fill="#F4DB13"/>
<path d="M120.041 32.1256C122.53 31.1482 146.345 31.078 148.625 32.1275C149.937 34.011 149.036 58.5268 149.158 63.1182C139.902 63.7665 129.405 63.0033 119.779 63.5546C119.916 56.9574 119.995 50.359 120.017 43.7602C120.053 40.4707 120.26 35.286 120.041 32.1256Z" fill="#F4DB13"/>
<path d="M30.0531 63.1709C39.7613 63.5979 49.5294 63.1398 59.3485 63.5708C60.2007 66.594 59.688 89.5873 59.6336 94.1046C50.9244 94.2333 42.2157 94.7028 33.5034 94.5678C32.3926 94.5507 31.2557 94.6118 30.1609 94.387L29.964 74.582C29.9431 70.9612 29.7868 66.725 30.0531 63.1709Z" fill="#F4DB13"/>
<path d="M119.801 157.088C128.855 157.991 140.023 156.93 149.209 157.696C149.28 161.588 149.401 185.483 148.671 187.861C145.7 189.876 124.579 188.01 120.057 188.851C119.705 186.065 119.809 179.822 119.811 176.891L119.801 157.088Z" fill="#F4DB13"/>
<path d="M59.5857 63.4035C59.5215 58.8781 59.1222 35.9897 59.8013 32.8454C61.4786 31.4556 84.3407 32.3113 88.0634 32.2181C88.3921 35.2818 88.1448 40.9333 88.0898 44.261C87.9685 50.6155 87.9114 56.9714 87.9187 63.3272L69.8075 63.5517C67.7417 63.5814 61.1864 63.8186 59.5857 63.4035Z" fill="#F4DB13"/>
<path d="M149.787 63.5374C156.402 62.9664 171.885 62.8267 178.612 63.2408C178.416 72.7906 178.404 84.1681 178.729 93.684C170.675 94.3242 156.879 93.3327 149.593 94.5682C149.686 85.0131 150.02 72.9068 149.787 63.5374Z" fill="#F4DB13"/>
<path d="M149.73 126.428C159.045 126.946 169.375 126.115 178.837 126.652C178.941 128.651 178.373 156.612 178.364 156.642C175.734 157.528 154.078 157.146 149.598 157.327C149.266 147.942 149.715 136.085 149.73 126.428Z" fill="#F4DB13"/>
<path d="M59.5894 158.327C68.6786 158.104 79.4991 158.133 88.4575 157.522C87.9424 165.069 87.8124 180.828 88.3562 188.191L88.8861 188.734C84.7756 188.518 60.9425 188.637 60.0182 188.065C59.1228 185.163 59.5534 162.601 59.5894 158.327Z" fill="#F4DB13"/>
</svg>
