<svg width="209" height="221" viewBox="0 0 209 221" fill="none" xmlns="http://www.w3.org/2000/svg">
<g opacity="0.12">
<path d="M89.2382 63.2924C89.074 56.5838 87.2889 2.42351 88.7354 0.645657C89.4727 0.317483 90.6031 -0.00548533 91.5557 0.0204829C100.507 0.256469 109.346 -0.270049 118.267 0.210363C120.118 0.310016 119.302 19.9738 119.981 22.3334C120.149 24.2716 119.456 28.5304 119.591 30.2806C119.935 34.7374 117.95 61.2452 119.378 63.1347C126.227 61.5331 140.677 62.5692 148.101 62.4803C148.459 70.3191 148.864 77.7103 148.445 85.5657C148.309 88.107 148.477 91.4329 148.116 93.8483C157.456 93.2562 167.86 93.3695 177.271 93.5279C186.901 93.6896 199.441 92.9329 208.827 94.0057C207.883 102.318 208.448 116.771 208.566 125.422L167.133 125.591C161.05 125.591 153.773 125.718 147.778 125.412C148.953 134.044 148.452 147.239 148.273 156.321C142.538 156.47 136.8 156.516 131.063 156.454C127.818 156.405 122.231 156.107 119.178 156.315C119.495 158.405 119.284 163.43 119.274 165.887L119.326 182.494C119.346 190.817 120.857 212.114 119 219.463C116.94 220.417 93.3866 220.177 89.1584 220.2C88.7325 214.948 88.9525 207.005 89.019 201.574L89.3608 170.977C89.3705 166.517 89.4273 161.466 89.3319 156.97C89.3219 156.5 89.1981 156.581 88.6603 156.233C87.7195 156.276 86.7783 156.311 85.8368 156.337C80.3059 156.487 66.9985 156.717 60.7811 156.13C60.5601 155.941 60.3391 155.753 60.1181 155.562C58.7335 152.143 59.6969 130.694 59.8639 125.571C55.6346 123.955 3.69165 127.139 1.40665 126.139C-0.604086 123.251 1.21069 105.726 0.421483 101.479C0.211935 100.352 -0.328021 95.1853 0.280599 94.4069C1.20926 94.0336 2.2613 93.7827 3.28615 93.8051C22.2975 94.2248 41.2266 92.6895 60.2129 94.0194C60.3813 83.5376 60.0144 73.3149 60.8991 62.8627C67.3185 61.6918 82.6478 62.5147 89.2382 63.2924Z" fill="#F6D815"/>
<path d="M119.378 63.1347C126.227 61.5331 140.677 62.5692 148.101 62.4803C148.459 70.3191 148.864 77.7103 148.445 85.5657C148.309 88.107 148.477 91.4329 148.116 93.8483C146.19 94.2826 122.648 94.2654 118.464 94.3504C118.601 90.9876 118.858 64.0991 119.378 63.1347Z" fill="#F8F448"/>
<path d="M59.8639 125.571C62.436 124.555 85.3229 124.903 89.5192 124.909C89.1048 132.774 88.8827 147.878 89.2496 155.805C89.0712 155.948 88.8566 156.152 88.6603 156.233C87.7195 156.276 86.7783 156.311 85.8368 156.337C80.3059 156.487 66.9985 156.717 60.7811 156.13C60.5601 155.941 60.3391 155.753 60.1181 155.562C58.7335 152.143 59.6969 130.694 59.8639 125.571Z" fill="#F8F448"/>
<path d="M119.131 124.711C127.809 125.481 139.733 124.367 147.778 125.412C148.953 134.044 148.452 147.239 148.273 156.321C142.538 156.47 136.8 156.516 131.063 156.454C127.818 156.405 122.231 156.107 119.178 156.315C118.784 154.653 118.902 149.164 118.9 147.268C118.893 139.757 119.285 132.229 119.131 124.711Z" fill="#F8F448"/>
<path d="M60.8991 62.8627C67.3185 61.6918 82.6478 62.5147 89.2382 63.2924C89.24 70.2668 89.9412 83.1189 89.2575 89.5317C86.3177 89.2425 84.7197 91.9153 85.7352 94.1083C82.111 94.553 64.6738 94.1132 60.2129 94.0194C60.3813 83.5376 60.0144 73.3149 60.8991 62.8627Z" fill="#F8F448"/>
<path d="M85.7352 94.1083C84.7197 91.9153 86.3177 89.2425 89.2575 89.5317C89.3204 91.1677 89.6962 92.8154 88.6893 93.9957C87.6211 94.3576 86.8749 94.1979 85.7352 94.1083Z" fill="#F5ED93"/>
<path d="M174.314 156.256C175.724 156.061 176.399 155.951 177.509 156.701C179.373 160.515 176.753 180.043 177.554 185.152C178.272 189.732 202.444 184.282 207.297 187.717C207.769 188.512 207.876 189.216 207.958 190.116C208.255 193.329 208.423 216.967 207.769 217.587C206.982 218.336 205.634 218.547 204.558 218.684C202.069 218.999 199.376 218.771 196.859 218.765C190.994 218.752 185.097 218.638 179.239 218.885C178.741 218.862 176.832 218.788 176.694 218.457C173.988 211.971 176.458 194.394 177.746 188.272C169.205 187.827 159.937 188.729 151.356 188.483C150.021 188.444 149.061 188.395 148.232 187.564C146.805 183.422 147.473 160.622 149.052 156.493C157.291 156.12 166.4 156.844 174.314 156.256Z" fill="#F8F448"/>
<path d="M30.8671 156.24C36.511 156.681 55.5052 155.73 59.0028 157.116C60.4746 159.95 60.2504 183.451 59.9128 187.772C58.2844 187.898 56.6784 187.934 55.046 187.892C47.0249 187.694 38.9941 187.804 30.9769 187.713C31.303 191.313 31.8616 216.772 31.0238 218.765C24.005 218.745 16.9858 218.81 9.96881 218.956C7.94949 218.995 3.89835 219.641 2.45225 219.054C0.516252 216.613 1.83147 195.186 1.65232 191.011C1.36696 184.351 8.14367 187.674 12.5774 186.928C14.7938 186.555 29.007 188.243 29.6921 186.399C31.5101 181.507 27.8423 158.996 30.8671 156.24Z" fill="#F8F448"/>
<path d="M176.971 0.306129C184.724 0.298339 192.625 0.798544 200.435 0.447648C202.362 0.360979 205.13 0.411938 206.993 0.850152C208.119 3.037 207.49 11.7282 207.515 14.6695C207.544 17.314 208.323 29.4909 206.943 31.1074C197.581 31.0603 186.844 31.4388 177.687 30.5809C177.537 30.2748 177.393 29.9667 177.254 29.6567C176.707 28.4314 175.994 26.1325 176.023 24.9165C176.108 21.2949 175.875 2.69813 176.971 0.306129Z" fill="#F8F448"/>
<path d="M148.778 30.4764C156.062 30.6159 168.952 30.2004 176.306 31.3885C176.693 31.4511 177.059 32.5253 177.114 32.9816C178.24 42.3312 177.385 52.3517 177.637 61.809C177.371 62.1998 177.157 62.5153 176.993 62.7552C171.532 63.2038 154.113 62.9224 148.654 62.552C147.302 57.1422 147.739 50.5933 147.939 45.0374C148.044 42.1131 147.309 32.4782 148.778 30.4764Z" fill="#F8F448"/>
<path d="M39.4708 30.9561C42.5085 30.7523 56.9037 30.4205 59.0349 31.4031C60.8415 34.419 59.5703 56.6488 59.9944 62.2167C56.9763 62.3176 53.9568 62.3845 50.9366 62.4179C47.9754 62.3358 32.7667 63.098 31.3245 62.5413C30.2557 59.8549 30.4159 34.8413 31.2322 31.4011C33.6674 31.1603 36.9333 31.0996 39.4708 30.9561Z" fill="#F8F448"/>
<path d="M2.22196 0.418117C6.71759 0.755379 28.9487 -0.0103604 31.0002 1.08258C31.4432 3.15355 31.4239 29.5136 30.8811 31.1817C26.2142 30.8717 4.7512 31.5485 2.4501 30.8337C0.545927 27.713 1.73706 7.21174 0.95787 2.38067C0.81984 1.52405 1.57472 0.913136 2.22196 0.418117Z" fill="#F8F448"/>
</g>
</svg>
