<svg width="209" height="221" viewBox="0 0 209 221" fill="none" xmlns="http://www.w3.org/2000/svg">
<path d="M206.899 99.4282C207.655 99.3842 207.747 99.339 208.42 99.6413C209.192 100.809 208.669 117.917 208.453 120.347C206.325 120.388 204.109 120.174 201.985 120.244C192.122 120.569 181.647 119.873 171.871 120.714C171.213 120.805 171.256 120.809 170.616 120.638C170.453 120.478 170.083 120.197 170.128 119.992C170.667 117.528 169.881 101.394 170.431 100.424C171.641 99.3756 176.097 99.9744 177.895 99.9291C183.907 99.7161 189.922 99.5998 195.938 99.5806C199.28 99.5514 203.641 99.6861 206.899 99.4282Z" fill="#F6E330"/>
<path d="M108.085 179.549C109.39 179.569 113.223 179.042 113.941 180.087C114.122 186.275 113.855 193.581 113.892 199.874L113.886 212.966C113.881 214.378 114.225 218.778 113.443 219.733C112.17 220.356 102.97 220.084 100.895 220.07C99.5427 220.096 95.7454 220.495 94.7596 219.821C94.4707 218.459 94.5427 212.379 94.4643 210.599C94.0181 200.465 94.6098 189.698 94.1216 179.668C98.6217 179.5 103.552 179.572 108.085 179.549Z" fill="#F6E330"/>
<path d="M38.1256 39.9252C40.1293 40.2115 42.2575 40.0402 44.2699 40.0803C48.444 40.1633 52.7253 39.8614 56.8694 39.8622C56.7918 46.8937 56.7441 52.9662 56.9104 60.0362C59.5331 59.8981 73.8855 59.5905 75.5781 60.2821C76.1325 62.6225 75.6159 75.7817 75.9088 79.0631C75.951 79.5362 75.3031 79.7261 74.9003 79.9041C68.7739 80.1164 62.5064 79.9008 56.4724 80.2008C56.2691 73.122 56.593 66.9853 56.6858 60.0959L44.4012 60.1678C43.0418 60.1774 38.253 60.5226 37.3882 59.6471C36.3849 56.9359 36.8296 44.1138 37.3464 40.6556C37.4131 40.2086 37.7601 40.131 38.1256 39.9252Z" fill="#F6E330"/>
<path d="M107.669 0.116106C109.768 0.0529554 111.95 -0.0563844 114.042 0.03497C114.04 3.51032 113.777 39.6975 113.524 40.1627C112.1 40.3967 109.884 40.2785 108.374 40.2789L99.562 40.3035C98.256 40.2971 95.5209 40.7935 94.6223 40.1136C94.1012 37.7829 93.9298 2.39139 94.3357 0.706745C94.4684 0.592297 94.6011 0.47785 94.7337 0.363401C98.2912 0.115498 104.306 0.226263 107.669 0.116106Z" fill="#F6E330"/>
<path d="M114.641 99.5524C117.067 99.9933 119.928 99.4398 122.415 99.5498C129.786 99.8759 137.173 99.7116 144.549 99.7546C146.951 99.7687 149.301 99.7826 151.7 99.5855C152.071 102.075 151.773 106.276 151.834 108.884C151.878 110.82 152.374 118.758 151.521 120.096C147.512 120.3 142.143 120.128 138.064 120.136C129.978 120.211 121.89 120.238 113.804 120.215C113.79 114.425 113.6 108.603 113.83 102.817C113.873 101.725 113.868 100.286 114.641 99.5524Z" fill="#F6E330"/>
<path d="M0.480521 99.7452C1.37743 99.7221 2.00337 99.9352 2.82539 99.944C4.0802 99.9577 5.37178 99.9326 6.62814 99.9195C17.0687 99.7774 27.51 99.7147 37.9515 99.7312C38.4641 105.844 37.7138 113.142 37.9801 119.356C38.0017 119.862 37.7302 119.937 37.3944 120.187C33.8697 119.758 26.4587 120.251 22.6314 120.259C17.9751 120.268 12.9926 120.492 8.28287 120.336C6.38714 120.274 1.78766 120.666 0.30857 120.022C0.276864 119.847 0.244966 119.673 0.21326 119.499C0.290871 113.228 0.441036 106.978 0.00201765 100.713C-0.0263814 100.307 0.250605 100.075 0.480521 99.7452Z" fill="#F6E330"/>
<path d="M112.423 59.5772C113.024 59.5192 112.982 59.5202 113.551 59.7391C114.236 60.5948 113.846 62.4668 113.813 63.5839C113.761 65.7333 113.724 67.8833 113.703 70.0333C113.678 72.8616 113.903 99.1314 113.599 99.7913C112.917 99.9916 107.572 99.7635 106.411 99.7639C103.045 99.7772 99.6794 99.8573 96.3161 100.004L94.5651 100.164C95.0776 95.2547 94.4058 88.3534 94.4423 83.2652C94.4976 75.5542 94.3982 67.802 94.4048 60.0965C96.4853 59.5631 100.368 59.7942 102.635 59.7934C105.939 59.7918 109.103 59.8556 112.423 59.5772Z" fill="#F6E330"/>
<path d="M78.337 99.6264C82.4398 99.5422 90.8777 99.3305 94.6368 100.32C94.4966 103.807 94.5188 107.449 94.5215 110.944C94.5236 113.66 94.4287 117.124 94.8212 119.763C92.0467 120.025 88.5447 119.952 85.7067 119.985L72.719 120.22C70.9326 120.243 57.4706 120.532 56.8844 120.234C56.2063 118.498 56.5663 103.06 56.5424 100.078C63.264 100.509 71.6385 100.041 78.337 99.6264Z" fill="#F6E330"/>
<path d="M98.332 119.859C103.31 119.663 108.838 120.307 113.507 120.063C113.644 121.149 113.733 122.24 113.774 123.335C113.908 126.981 113.791 130.806 113.79 134.473L113.876 152.985C113.882 154.904 113.965 156.821 113.984 158.74C113.852 158.889 113.72 159.038 113.588 159.187C112.661 159.557 111.802 159.441 110.795 159.416C108.585 159.422 95.5604 159.837 94.6296 158.975C94.3392 157.759 94.369 151.207 94.3807 149.551C94.4468 140.093 93.7543 129.368 95.1504 120.066C96.1179 119.964 97.3414 119.923 98.332 119.859Z" fill="#F6E330"/>
<path d="M136.401 139.484C138.519 139.367 149.809 139.222 151.342 139.649C152.219 140.978 152.059 158.411 151.635 158.999C150.585 159.492 149.336 159.363 148.142 159.375L131.951 159.4C131.9 158.764 131.863 158.127 131.844 157.487C131.768 154.834 131.217 141.103 132.303 139.876C133.444 139.421 135.125 139.515 136.401 139.484Z" fill="#F6E330"/>
<path d="M142.82 59.7918C144.639 59.7333 150.095 59.398 151.478 60.0847C151.696 60.5296 151.857 61.7405 151.81 62.3806C151.524 67.9556 152.347 74.1477 151.478 79.5609C151.394 80.0796 146.276 79.9676 145.475 79.9701C143.75 79.9756 141.781 79.9652 139.98 79.9603C138.362 79.9942 132.707 80.6576 131.937 79.3492C131.871 78.2861 131.896 77.244 131.986 76.188C132.4 71.3685 132.083 66.571 131.834 61.7552C131.805 61.1848 131.931 60.8997 132.229 60.4444C133.442 59.5314 140.791 59.8026 142.82 59.7918Z" fill="#F6E330"/>
<path d="M48.2013 159.531C49.8124 159.482 55.6292 159.077 56.6665 159.835C57.3306 161.679 57.3851 178.339 56.4819 179.369C55.3001 179.668 47.0869 179.514 45.3411 179.508C43.6913 179.492 38.7016 179.892 37.5975 179.238C36.8663 177.46 37.1342 161.82 37.6508 159.927C38.6074 159.265 46.4339 159.531 48.2013 159.531Z" fill="#F6E330"/>
<path d="M72.1925 139.3C72.7404 139.241 73.2907 139.21 73.8415 139.208C74.7917 139.2 75.2236 139.206 75.8585 139.862C76.0423 141.616 75.9878 157.152 75.5809 158.333C74.2166 159.159 62.4874 159.153 59.8313 159.324C58.9882 159.294 57.7784 159.341 57.1104 158.852C56.2855 156.612 56.2973 142.184 56.8647 139.876C57.7325 139.134 70.01 139.316 72.1925 139.3Z" fill="#F6E330"/>
<path d="M153.415 39.7175C155.319 39.8381 157.193 39.7224 159.089 39.7756C163.168 39.8898 167.053 39.9035 171.126 39.6985C170.836 44.7418 170.709 53.8916 170.941 59.0542C170.598 59.7188 170.762 59.4977 169.97 59.8637C168.111 60.0096 153.602 59.7844 152.258 59.4057C151.542 55.7544 152.129 49.4485 151.935 45.5303C151.882 44.4864 151.649 41.0278 151.713 40.2213C152.219 39.7533 152.725 39.7958 153.415 39.7175Z" fill="#F6E330"/>
<path d="M154.631 159.494C156.702 159.365 159.959 159.594 162.122 159.608C164.518 159.623 168.428 159.41 170.667 159.756C171.147 160.336 171.015 177.217 171.091 179.443C170.421 179.531 169.785 179.553 169.114 179.588C166.311 179.443 153.678 179.594 151.912 178.899C151.688 177.227 151.941 160.628 152.283 160.126C153.034 159.621 153.734 159.621 154.631 159.494Z" fill="#F6E330"/>
</svg>
