<svg width="209" height="221" viewBox="0 0 209 221" fill="none" xmlns="http://www.w3.org/2000/svg">
<path d="M92.8957 97.6763C92.6692 94.9521 92.0404 75.1568 92.855 74.0322C93.0866 73.7101 93.4124 73.5604 93.7942 73.5132C96.6298 73.1629 99.8828 73.4682 102.756 73.4416C106.302 73.4091 109.932 73.0912 113.465 73.2447C113.992 73.2676 114.816 73.295 115.196 73.691C116.983 75.5602 114.559 94.3686 116.015 96.8144C116.219 97.1594 116.983 97.1616 117.362 97.1965C119.757 97.416 122.3 97.2047 124.713 97.254C129.442 97.3504 134.166 97.5878 138.896 97.5159C139.13 103.012 139.148 108.376 139.048 113.866C139.005 116.398 139.293 118.861 138.99 121.383C137.137 122.751 120.409 121.944 116.832 122.287L115.542 122.497C116.379 129.643 115.038 138.403 116.125 145.666C114.101 145.887 109.856 145.722 107.613 145.708C102.688 145.647 97.7625 145.695 92.8397 145.849C92.3993 141.443 93.196 124.968 92.5521 122.693C90.4776 121.31 72.9954 123.084 70.3872 121.856C69.6124 120.956 69.7035 117.962 69.8343 116.78C70.1176 114.225 69.2688 98.9993 70.3047 97.6638C71.1936 97.1802 90.2689 97.8154 92.7633 97.9438L92.8957 97.6763Z" fill="#F8F54B"/>
<path d="M92.8397 145.849C92.3993 141.443 93.196 124.968 92.5521 122.693C90.4776 121.31 72.9954 123.084 70.3872 121.856C69.6124 120.956 69.7035 117.962 69.8343 116.78C70.1176 114.225 69.2688 98.9993 70.3047 97.6638C71.1936 97.1802 90.2689 97.8154 92.7633 97.9438C92.7582 101.16 92.4681 120.635 93.1884 122.499C99.7988 123.085 109.158 122.019 115.542 122.497C116.379 129.643 115.038 138.403 116.125 145.666C114.101 145.887 109.856 145.722 107.613 145.708C102.688 145.647 97.7625 145.695 92.8397 145.849Z" fill="#F8F54B"/>
<path d="M92.8957 97.6763C94.3695 98.0802 98.5082 97.8582 100.262 97.8726C105.325 97.9145 110.701 97.5862 115.751 97.7581C115.662 103.625 115.656 109.494 115.73 115.361C115.743 116.656 115.7 121.045 115.939 122.085L116.832 122.287L115.542 122.497C109.158 122.019 99.7988 123.085 93.1884 122.499C92.4681 120.635 92.7582 101.16 92.7633 97.9438L92.8957 97.6763Z" fill="#F4DA1B"/>
<path d="M187.077 97.2807C190.104 97.2138 206.47 96.9604 208.387 97.6491C209.021 98.8653 208.922 120.198 208.4 122.274C206.931 123.042 187.683 122.612 184.488 122.598C181.788 122.575 163.135 122.816 162.804 122.628C161.98 120.502 162.112 100.05 162.649 98.1167C163.84 97.0824 169.203 97.6004 170.99 97.5857C176.353 97.5124 181.717 97.4107 187.077 97.2807Z" fill="#F4DA1B"/>
<path d="M20.8715 97.5439C24.6699 97.3464 29.6558 97.5207 33.5625 97.4706C37.2533 97.4234 43.2998 97.3243 46.8626 97.7152C46.3998 104.163 46.5423 110.646 46.4278 117.107C46.4016 118.591 46.3441 120.071 46.0175 121.519C44.8257 122.323 28.5488 122.296 25.8029 122.373C22.584 122.405 19.1187 122.702 15.8242 122.776C10.69 122.893 5.26349 122.912 0.166371 123.331C-0.1658 119.159 0.114943 113.483 0.0561452 109.125C0.0205099 106.485 -0.0932704 100.806 0.162285 98.4169C0.959497 97.603 18.2533 97.6371 20.8715 97.5439Z" fill="#F4DA1B"/>
<path d="M115.593 170.011C115.725 170.091 116.028 170.467 116.033 170.563C116.153 174.093 116.054 177.684 116 181.22C115.845 191.211 116.122 201.194 115.944 211.184C115.893 214.104 115.868 216.806 116.227 219.705C108.45 219.766 100.677 219.934 92.9059 220.211C92.4452 219.172 92.6819 216.526 92.7022 215.285C92.883 203.642 92.5699 191.997 92.5724 180.359C92.5724 178.55 92.4044 172.329 92.8575 170.872C93.4226 170.411 93.5728 170.422 94.3236 170.398C101.29 170.177 108.672 170.712 115.593 170.011Z" fill="#F4DA1B"/>
<path d="M106.936 0.0279907C108.911 0.0247936 113.964 -0.169949 115.636 0.514494C116.066 1.65425 115.814 10.8064 115.799 12.7769L115.598 41.3103C115.6 42.7341 116.13 47.8692 115.692 48.5557C114.445 49.3257 103.352 48.978 101.084 48.9612C99.0377 49.0284 94.6444 49.4483 92.7888 48.6237C92.2924 48.4031 92.4197 42.3603 92.4172 41.4588C92.3841 27.9849 92.1754 14.4767 92.4274 1.00817C92.5521 0.840587 92.6794 0.673007 92.8041 0.50516C94.4178 0.0170715 104.177 0.230206 106.936 0.0279907Z" fill="#F4DA1B"/>
<path d="M150.146 146.041C153.43 146.001 159.579 145.751 162.621 146.174C163.24 153.392 161.639 163.572 162.636 170.456C159.966 170.859 154.127 170.648 151.213 170.619C147.443 170.645 141.973 170.837 138.348 170.486C138.234 166.734 137.783 149.217 139.026 146.822C140.825 145.831 147.715 146.092 150.146 146.041Z" fill="#F4DA1B"/>
<path d="M139.046 48.9666C146.28 49.2615 155.418 48.9836 162.754 48.9721C162.759 50.345 162.715 51.8791 162.644 53.2507C162.3 59.944 162.502 66.7839 162.14 73.4621C161.389 73.5108 157.93 73.5527 157.263 73.4789C154.171 73.1365 141.044 74.2582 139.048 72.7481C137.694 70.0934 138.17 63.0681 138.114 59.8782C138.071 57.437 137.722 50.58 139.046 48.9666Z" fill="#F4DA1B"/>
<path d="M66.0908 145.786C67.4239 145.663 68.607 145.527 69.8298 146.1C70.4997 147.28 69.8486 154.692 69.7753 156.488C69.5709 161.206 69.5508 165.932 69.715 170.651C68.5415 170.696 67.2566 170.675 66.0748 170.645C60.799 170.515 55.4227 170.901 50.1616 170.606C49.0587 170.725 48.1981 170.936 47.1693 170.56C47.0395 170.406 46.9097 170.251 46.7798 170.099C46.5329 163.583 46.6994 152.281 46.6111 146.214C52.4741 145.615 60.0168 146.009 66.0908 145.786Z" fill="#F4DA1B"/>
<path d="M62.1363 48.7798C64.6578 48.7326 67.18 48.7457 69.7009 48.8195C69.5324 55.9996 69.1738 66.805 69.5686 73.6707L55.2412 73.6001C52.3967 73.7072 49.5502 73.7405 46.704 73.7005C46.3771 66.3115 47.1675 56.0017 46.4505 49.0409C51.4017 48.7108 56.9583 49.0715 62.1363 48.7798Z" fill="#F4DA1B"/>
</svg>
