<svg width="209" height="221" viewBox="0 0 209 221" fill="none" xmlns="http://www.w3.org/2000/svg">
<path d="M93.2718 73.5344C99.3639 73.3401 109.503 73.2312 115.375 73.8929L116.023 74.2325C115.785 79.0562 115.653 83.885 115.626 88.7152C115.629 91.5585 115.817 94.9453 115.735 97.6901C119.434 97.6139 135.52 97.1189 137.869 98.5085C139.107 101.257 137.58 118.012 138.65 121.651L138.608 121.816C135.102 122.538 117.04 121.609 115.762 122.471C115.496 128.739 115.394 139.411 115.606 145.704C112.737 145.739 95.1807 146.297 93.2935 145.55C92.6382 143.195 92.8944 125.43 93.0484 122.257L92.5027 121.983C85.1834 122.309 77.4389 121.836 70.0393 122.095C69.4884 116.891 69.8632 102.991 70.4339 97.7903C74.7434 97.1104 88.2382 97.645 92.7643 98.0414L92.9013 98.0147C93.285 89.8946 92.6076 81.8736 93.2718 73.5344Z" fill="#F9F346"/>
<path d="M70.4339 97.7903C74.7434 97.1104 88.2382 97.645 92.7643 98.0414C93.0498 99.7932 92.7572 102.405 92.831 104.265C93.0531 109.848 92.6014 116.29 92.876 121.771L92.5027 121.983C85.1834 122.309 77.4389 121.836 70.0393 122.095C69.4884 116.891 69.8632 102.991 70.4339 97.7903Z" fill="#F9F346"/>
<path d="M92.9013 98.0147C96.6865 97.948 100.528 98.0583 104.328 98.0633C108.088 98.0681 112.186 97.8269 115.904 97.9467C115.724 105.957 115.678 113.971 115.765 121.983C113.492 121.876 93.6667 121.547 93.0484 122.257L92.5027 121.983L92.876 121.771C92.6014 116.29 93.0531 109.848 92.831 104.265C92.7572 102.405 93.0498 99.7932 92.7643 98.0414L92.9013 98.0147Z" fill="#F3DA18"/>
<path d="M161.739 121.853C161.742 118.607 161.449 99.8049 162.232 98.0735C164.566 97.3309 173.165 97.6632 176.262 97.6064C186.943 97.4104 197.779 97.3331 208.455 97.666C209.151 104.16 208.231 111.465 208.759 118.032C208.832 118.946 208.95 121.2 208.467 121.94C207.354 122.289 206.574 122.199 205.66 122.279C200.481 122.737 164.622 121.21 162.22 122.81C161.006 125.719 162.411 144.15 161.216 145.886C159.736 146.379 157.897 146.222 156.329 146.362C150.705 146.868 144.303 146.337 138.771 146.887C139.116 139.05 138.236 130.675 138.93 122.747C138.964 122.364 138.807 122.107 138.608 121.816L138.65 121.651L138.827 121.654C140.74 121.654 142.665 121.312 144.68 121.327C150.373 121.372 156.054 121.676 161.739 121.853Z" fill="#F3DA18"/>
<path d="M41.5434 97.5158C42.92 97.6518 45.6867 97.7636 46.6923 98.581C46.9542 100.97 46.7397 103.561 46.7642 105.989C46.8177 111.295 46.6659 116.729 47.0985 122.015C49.9937 121.661 67.2714 121.467 69.4573 122.202C70.2196 124.631 69.8054 141.97 70.0129 146.153C68.0182 146.529 49.1602 146.917 47.1716 146.387C46.4776 144.713 46.8944 130.079 46.9184 127.389C47.0089 125.625 47.0648 123.859 47.0858 122.09C36.2981 122.077 25.5103 122.174 14.724 122.379C10.5972 122.441 4.16827 122.984 0.439338 122.62C-0.238371 120.966 -0.0905711 99.8817 0.598924 98.3309C2.2391 97.6455 8.72271 97.8872 10.9831 97.8508C16.9274 97.7133 22.8723 97.6179 28.818 97.5641C32.9493 97.5474 37.4533 97.7113 41.5434 97.5158Z" fill="#F3DA18"/>
<path d="M117.017 146.021C118.865 145.836 121.72 145.991 123.628 145.973C128.739 145.931 133.561 146.17 138.649 146.648C138.65 148.746 138.516 170.088 138.361 170.457C136.701 171.289 124.672 170.539 122.199 170.821C121.223 170.93 118.481 170.636 117.342 171.04C116.84 171.219 116.338 171.473 116.272 172.036C116.123 173.322 116.123 177.116 116.009 178.11C115.529 182.3 116.029 218.418 115.523 219.479C114.896 219.92 114.047 219.841 113.263 219.873C109.132 219.798 104.964 219.781 100.834 219.9C98.6475 219.963 96.0199 220.401 93.8687 220.115C93.5792 220.077 93.3089 220.018 93.1537 219.744C92.2684 218.174 92.6231 174.66 93.4699 170.98C95.383 170.385 113.062 170.484 115.825 170.599C115.805 165.305 115.82 160.011 115.87 154.717C115.897 152.373 115.905 149.884 116.067 147.545C116.133 146.586 116.422 146.516 117.017 146.021Z" fill="#F3DA18"/>
<path d="M93.6952 0C97.36 0.790218 114.404 -0.350515 115.817 0.69929C117.087 3.46904 115.02 41.7742 115.844 48.2038L115.896 48.5892C112.161 48.7576 96.4968 49.5147 93.6191 48.7489C92.3162 47.2362 93.1325 7.34639 92.7992 2.34525C92.699 0.843282 92.6505 0.757334 93.6952 0Z" fill="#F3DA18"/>
<path d="M115.375 73.8929C115.407 73.779 115.439 73.6652 115.472 73.5516C115.471 66.6447 115.383 59.6832 115.485 52.7473C115.504 51.4103 115.564 50.4365 115.994 49.2387C117.88 48.17 135.294 48.5242 138.636 48.5195C138.917 50.2885 138.844 51.5446 138.831 53.3258C138.787 59.8464 138.496 66.4683 138.7 72.9859C135.567 73.3912 117.412 73.3119 116.023 74.2325L115.375 73.8929Z" fill="#F3DA18"/>
<path d="M146.377 73.3354C149.267 73.4218 159.686 72.8902 161.487 73.5461C162.593 75.6415 161.131 92.9002 162.194 97.3486C160.026 97.4844 157.859 97.6453 155.695 97.8316C150.316 98.0055 144.239 98.0015 138.847 97.9031C138.336 93.049 138.492 78.3029 139.321 73.7041C141.339 73.4186 144.282 73.4071 146.377 73.3354Z" fill="#F3DA18"/>
<path d="M83.8563 145.821C85.7968 145.769 90.4636 145.43 92.0468 146.382C92.7657 148.158 92.4718 167.779 92.0244 170.372C91.1538 171.105 81.434 170.756 79.7919 170.763C76.4387 170.811 73.0502 170.734 69.6864 170.744C69.8912 163.808 69.3102 152.592 70.3704 146.3C74.7101 145.771 79.4143 145.976 83.8563 145.821Z" fill="#F3DA18"/>
<path d="M71.8022 48.6166C78.18 49.2277 85.466 48.0586 91.6571 49.4198C93.0036 49.7158 92.1205 64.3632 92.3506 66.5169C92.48 67.7286 92.6875 72.6167 92.2957 73.3035L91.5416 73.4796C86.0791 74.0949 79.5449 73.5392 73.9695 73.4956C73.3533 73.4908 70.5166 73.5812 70.2229 73.1612C69.5468 72.1946 69.5864 51.497 69.9523 49.2905C70.6771 48.6126 70.6592 48.8142 71.8022 48.6166Z" fill="#F3DA18"/>
<path d="M47.4144 73.2519C52.758 73.7474 64.0516 73.3501 69.9035 73.3894C69.9905 76.0227 70.2486 95.3768 69.7955 96.9913L69.3554 97.2028C66.4876 97.4141 49.9564 98.2474 47.829 97.6697C46.6638 95.8974 46.5789 74.647 47.4144 73.2519Z" fill="#F3DA18"/>
</svg>
