<svg width="209" height="221" viewBox="0 0 209 221" fill="none" xmlns="http://www.w3.org/2000/svg">
<g opacity="0.5">
<path d="M90.0878 0C94.4981 0.549689 117.519 -0.783066 119.343 0.922487C120.028 3.54602 119.139 14.6092 119.137 18.3547L118.915 68.3018C118.898 74.2187 119.168 79.7995 119.318 85.6672C119.379 88.0338 119.016 92.421 118.889 94.9274L99.8225 94.9345C97.3612 94.9445 91.3004 95.1407 89.1344 94.6714C88.411 91.7509 88.7496 73.9382 88.7362 69.9948L88.2678 27.3795C88.2452 18.8043 88.6131 10.2556 88.4843 1.63615C88.8354 0.656841 89.1772 0.579384 90.0878 0Z" fill="#F6E22D"/>
<path d="M117.545 125.692C118.531 125.661 118.088 125.536 118.925 126.06C119.693 127.575 119.172 140.553 119.167 143.49L119.214 187.543L119.16 207.884C119.158 211.231 119.316 216.351 118.968 219.52C115.785 219.94 110.409 219.801 107.052 219.833C101.428 219.917 95.8045 220.043 90.1821 220.211C89.6126 219.933 89.6083 219.827 89.1262 219.339C88.7228 218.281 88.8608 205.444 88.8342 202.981C88.4339 182.769 88.2937 162.557 88.4137 142.341C88.4293 139.266 88.0638 128.786 88.8315 126.435C90.8924 125.41 112.669 126.097 117.114 125.73L117.545 125.692Z" fill="#F6E22D"/>
<path d="M179.868 94.3803C186.831 93.8632 200.469 93.9739 207.606 94.6188C207.932 94.6114 208.516 95.0746 208.504 95.4383C208.356 100.015 209.573 123.092 208.061 126.171C206.21 127.106 181.218 126.638 176.9 126.639C172.409 126.643 151.28 127.103 148.715 126.209C148.09 125.295 148.285 97.0145 149.349 95.2434C150.636 94.8034 155.384 95.0842 157.063 95.0077C164.094 94.6872 172.956 95.2947 179.868 94.3803Z" fill="#F6E22D"/>
<path d="M0.531182 94.306C4.18335 94.113 10.2656 94.6762 14.323 94.6143C28.8889 94.3925 45.4586 95.3357 59.8416 94.1834C60.3959 100.637 59.6673 117.825 59.7125 125.434C59.714 125.716 58.9466 125.911 58.5753 126.056C43.9321 126.006 30.1827 126.628 15.6006 126.837C11.5961 126.894 4.39589 127.617 0.870449 127.164C-0.200466 124.72 -0.246583 96.5416 0.531182 94.306Z" fill="#F6E22D"/>
<path d="M55.2459 156.724C57.0442 156.524 59.9937 155.701 59.903 158.357C59.5778 167.908 59.517 177.491 60.0774 187.033C60.1113 187.61 60.0627 187.433 59.791 187.972C58.324 188.685 37.2504 188.656 33.9387 188.618C32.7643 188.698 29.4997 189.121 29.4682 187.478C29.3479 181.161 28.1084 163.15 29.5616 157.97C30.1098 156.017 51.5772 157.063 54.9518 156.753L55.2459 156.724Z" fill="#F6E22D"/>
<path d="M56.3559 31.1186C57.6626 31.0647 58.313 30.9078 59.481 31.5134C60.5519 33.2321 59.681 58.012 60.0475 63.1904C57.6012 63.4544 53.148 63.333 50.5491 63.343L33.7848 63.4754C32.5835 63.4683 31.5716 63.599 30.5278 63.0374C30.1883 62.1542 29.7748 52.4161 29.6954 50.5088C29.5073 45.9828 28.6523 36.2995 29.9754 32.1893C31.5572 30.5818 52.4362 31.3959 56.3559 31.1186Z" fill="#F6E22D"/>
<path d="M158.58 31.453C161.929 31.4617 175.779 30.995 177.932 32.1376C179.248 35.2734 177.786 56.2606 178.647 61.0022C178.783 61.7524 178.342 62.3824 177.895 62.9176C175.907 63.6177 170.915 63.3243 168.604 63.2823C161.921 63.2426 155.238 63.261 148.556 63.3375C148.557 58.6824 148.193 35.5032 149.071 32.5436C150.478 31.2551 156.316 31.5188 158.58 31.453Z" fill="#F6E22D"/>
<path d="M173.935 156.718C175.38 156.543 176.568 156.353 177.879 156.989C179.21 159.045 178.162 175.18 178.384 178.615C178.516 180.661 179.299 186.271 178.443 187.959C176.78 188.734 156.477 188.753 153.273 188.647C152.523 188.763 149.305 189.199 149.224 188.175C148.784 182.607 147.765 161.724 149.202 157.418C151.328 156.501 169.965 156.911 173.935 156.718Z" fill="#F6E22D"/>
</g>
</svg>
