<svg width="209" height="221" viewBox="0 0 209 221" fill="none" xmlns="http://www.w3.org/2000/svg">
<path d="M77.9456 49.1093C77.8422 48.0574 78.0956 39.4671 78.1811 38.1328C78.3742 35.1229 78.083 27.8084 78.4547 25.2088C80.9824 24.453 103.925 24.1612 104.892 24.9935C105.383 27.087 104.998 47.3749 104.278 49.1377C103.787 53.5504 103.792 68.6298 104.385 72.9142C107.428 72.7255 128.163 72.4469 129.675 73.5112C131.248 76.4341 129.07 95.259 130.761 97.0338C133.054 97.5734 136.75 97.2606 139.288 97.2885L155.488 97.4545C161.129 97.389 166.769 97.3815 172.412 97.4319C175.233 97.4458 180.396 97.3798 183.036 97.7063C182.621 105.291 182.658 114.648 182.743 122.298C173.92 122.458 164.982 122.236 156.061 122.388C149.414 122.039 140.283 122.358 133.418 122.331L78.615 122.201C78.4384 128.807 78.1651 139.63 78.6332 145.946C74.8547 145.976 55.3739 146.208 53.2469 145.64C51.9439 144.311 53.1598 125.491 52.3177 121.879C52.1115 121.276 52.299 100.446 52.1712 97.4461C54.1527 96.0596 51.2073 76.0754 53.1742 73.0994C55.1352 72.1463 74.6871 73.0017 78.4576 72.9726C77.9839 71.0599 78.0614 68.4127 78.0591 66.4017L78.0489 55.2248C78.0495 53.2949 78.1965 50.9561 77.9456 49.1093Z" fill="#F8F546"/>
<path d="M155.488 97.4545C161.129 97.389 166.769 97.3815 172.412 97.4319C175.233 97.4458 180.396 97.3798 183.036 97.7063C182.621 105.291 182.658 114.648 182.743 122.298C173.92 122.458 164.982 122.236 156.061 122.388C156.663 114.601 156.016 105.913 156.021 98.0603C156.021 97.7026 155.814 97.6998 155.488 97.4545Z" fill="#F4DB1B"/>
<path d="M77.9456 49.1093C77.8422 48.0574 78.0956 39.4671 78.1811 38.1328C78.3742 35.1229 78.083 27.8084 78.4547 25.2088C80.9824 24.453 103.925 24.1612 104.892 24.9935C105.383 27.087 104.998 47.3749 104.278 49.1377C96.8431 48.693 85.583 49.0345 77.9456 49.1093Z" fill="#F4DB1B"/>
<path d="M78.1131 170.94C76.4742 164.237 78.2325 154.344 79.1287 147.447C79.1945 146.941 80.1578 146.806 80.55 146.746C84.7864 146.48 101.449 146.37 104.704 147.362C105.687 149.511 104.367 166.997 104.434 170.718C105.034 185.57 103.866 200.882 104.305 215.768C104.334 216.74 104.636 219.146 103.914 219.744C100.819 220.33 94.7512 219.794 91.277 219.948C88.8473 220.056 79.9356 220.552 78.2386 219.814C77.6688 217.653 78.3779 209.444 78.3326 206.483C78.1579 195.047 77.7183 182.384 78.1131 170.94Z" fill="#F4DB1B"/>
<path d="M78.1131 170.94C76.4742 164.237 78.2325 154.344 79.1287 147.447C79.1945 146.941 80.1578 146.806 80.55 146.746C84.7864 146.48 101.449 146.37 104.704 147.362C105.687 149.511 104.367 166.997 104.434 170.718C102.561 170.925 78.3601 171.057 78.1131 170.94Z" fill="#F8F546"/>
<path d="M52.3177 121.879L17.8296 122.343C14.4786 122.415 3.02806 123.086 0.515273 122.657C-0.891906 119.454 1.15866 105.442 0.146569 101.229C0.045866 100.81 -0.0601662 98.6393 0.0408033 98.2208C2.40919 97.4575 6.18209 97.6535 8.75028 97.6502C20.1196 97.6358 31.4844 97.23 42.854 97.2192C45.9715 97.2165 49.0526 97.4289 52.1712 97.4461C52.299 100.446 52.1115 121.276 52.3177 121.879Z" fill="#F4DB1B"/>
<path d="M156.43 169.985L173.118 170.063C174.293 170.073 181.065 169.861 182.29 170.721C182.506 170.873 182.621 172.406 182.61 172.874C182.45 180.066 182.437 187.317 182.415 194.481C182.413 194.738 181.936 194.85 181.608 194.992C173.69 194.837 163.985 195.156 156.145 195.637C156.013 191.993 155.531 171.895 156.43 169.985Z" fill="#F4DB1B"/>
<path d="M189.814 194.743C192.981 194.715 205.798 194.319 208.001 194.875C208.873 196.256 208.255 216.095 208.827 219.871C206.547 219.826 204.269 219.796 201.989 219.784C199.631 219.714 183.617 220.125 182.738 219.714C181.526 217.149 182.407 199.122 182.743 195.064C184.728 194.87 187.722 194.832 189.814 194.743Z" fill="#F4DB1B"/>
<path d="M182.831 0.186448C191.425 0.123134 199.748 0.347217 208.513 0.166C208.694 2.41189 208.793 23.2464 208.34 24.8055C206.256 25.2467 185.261 25.3031 182.807 25.0171C181.92 23.7317 182.034 2.29001 182.831 0.186448Z" fill="#F4DB1B"/>
<path d="M28.3091 170.25C32.3628 170.419 50.2 170.177 52.4189 170.855C53.1854 173.086 52.4754 190.116 52.5817 193.743C52.6025 194.451 51.9889 194.725 51.4668 195.079C49.2931 195.154 46.4884 195.014 44.2364 195.022L26.7013 195.176C26.0384 188.601 26.4767 181.718 26.2923 175.108C26.2537 173.729 26.2859 172.289 26.3874 170.913C27.1592 170.27 27.1084 170.459 28.3091 170.25Z" fill="#F4DB1B"/>
<path d="M0.799268 0.6785C2.64709 0.249512 6.35259 0.40256 8.43192 0.32803C14.3779 0.114907 20.6572 0.401818 26.5526 0C26.6674 3.13154 27.017 22.6292 26.3635 24.8691C22.9052 24.9576 3.04058 25.6725 1.04703 24.8474C0.0533175 23.0527 0.641551 14.9712 0.596794 12.4835C0.559763 10.4308 0.227019 2.10655 0.799268 0.6785Z" fill="#F4DB1B"/>
<path d="M156.859 24.7108C162.685 24.457 176.882 24.4827 182.346 24.9464C182.442 25.4883 182.519 26.0329 182.578 26.5796C183.265 33.1724 182.082 40.9852 182.655 47.7263C182.708 48.3769 182.415 48.5399 182.013 48.9961C177.359 49.1462 172.089 48.9323 167.347 49.033C164.907 49.0851 158.351 49.1703 156.31 48.9138C155.924 48.1685 155.827 46.9377 155.851 45.2297C155.938 38.744 155.94 31.795 156.256 25.2831C156.457 25.0924 156.658 24.9015 156.859 24.7108Z" fill="#F4DB1B"/>
<path d="M0.566956 194.81C9.33665 195.049 17.7121 194.75 26.5324 195.293C26.8241 203.886 27.1443 210.738 26.5963 219.44C25.2925 219.709 2.12386 219.761 0.629835 219.435C0.541386 218.58 0.343442 215.078 0.503288 214.35C1.15306 211.394 -0.100402 196.378 0.566956 194.81Z" fill="#F4DB1B"/>
<path d="M26.3635 24.8691C29.1685 24.3608 49.8995 24.3217 51.9735 25.0884C53.0474 26.1862 52.6595 30.7445 52.6281 32.2783C52.5183 37.644 51.8147 43.0583 52.5284 48.4118C50.3593 49.5365 31.307 48.607 27.3423 48.8717C27.1939 48.8817 26.5105 48.6307 26.6472 48.4043C25.5355 41.9291 26.7639 31.0255 26.3635 24.8691Z" fill="#F4DB1B"/>
</svg>
