<svg width="209" height="221" viewBox="0 0 209 221" fill="none" xmlns="http://www.w3.org/2000/svg">
<path d="M89.411 0.0496334C94.3157 -0.0448383 99.6892 0.271352 104.693 0.0910846C107.098 0.0046462 116.507 -0.132248 118.467 0.299301C119.809 3.46507 119.036 55.278 118.681 63.4006C122.18 62.8113 147.011 61.7759 148.527 64.0249C149.24 68.4815 148.987 90.3318 147.69 94.7469C156.733 93.5814 165.496 94.1097 174.642 93.9519C182.348 93.8047 190.057 93.7504 197.763 93.7883C201.184 93.7867 205.481 93.5573 208.777 93.8173C208.911 99.7851 208.722 106.029 208.75 112.039C208.768 116.26 208.932 121.275 208.719 125.379C207.583 126.405 202.865 126.386 201.254 126.333C183.947 125.765 165.73 127.278 148.485 125.991C148.981 135.782 148.567 147.219 148.512 157.14C146.56 157.354 144.559 157.456 142.591 157.442C134.778 157.385 126.759 157.927 118.97 157.558C118.836 172.091 118.829 186.624 118.95 201.156C118.99 206.448 118.631 214.144 118.919 219.08C118.627 219.523 118.197 219.999 117.664 219.935C114.463 219.543 90.9647 220.873 89.6675 219.748C88.7154 214.562 88.7641 162.411 90.022 157.136C82.5454 157.308 66.1543 156.758 59.6463 157.749C59.9186 147.891 59.0353 135.494 60.0934 125.879C45.7485 126.645 30.8468 126.578 16.4848 126.55C12.9154 126.543 3.1081 127.264 0.31233 126.446C-0.0135735 124.617 0.152116 120.456 0.14907 118.388C0.137801 110.715 -0.311756 101.735 0.407364 94.1604C15.5497 94.5348 30.7721 93.7398 45.9233 93.8436C50.9264 93.878 55.0288 93.6739 59.9749 94.6736C59.4358 87.3466 59.7337 70.3713 60.3703 63.1117C69.5385 62.7184 80.1806 63.0266 89.4853 62.9736C89.7183 42.6564 87.8397 22.2765 88.4147 1.93007C88.4452 0.851675 88.7214 0.679123 89.411 0.0496334ZM88.9883 125.969C97.1949 125.261 110.147 125.46 118.388 125.954L118.367 106.883C118.374 102.766 118.246 97.9676 118.78 93.9461C111.565 94.5088 103.542 94.1132 96.2489 94.2906C94.2192 94.3401 92.0865 94.0515 90.0181 94.1376C89.9386 99.608 90.1566 121.908 88.9883 125.969Z" fill="#F6DD26"/>
<path d="M51.2343 31.3474C54.2628 31.2564 56.9644 31.1973 59.9993 31.2805C60.4991 35.73 60.2128 42.4529 60.2091 47.0872C60.2055 51.5164 60.4662 57.6982 60.0858 61.9655C53.9914 62.5764 44.7747 61.7962 37.79 62.2772C35.53 62.2377 31.0298 63.2933 29.6336 62.2811C28.6726 58.8589 29.2696 36.1137 29.6817 31.3985C35.8115 31.7805 44.9346 31.4017 51.2343 31.3474Z" fill="#F6DD26"/>
<path d="M149.28 30.7834C154.4 31.7876 165.088 30.7857 170.802 31.0328C173.381 31.1443 175.983 30.6774 178.599 31.4865C179.793 33.7439 178.331 56.1189 178.934 60.4026C179.007 60.9103 178.73 61.5057 178.492 61.9527C175.459 62.64 152.847 63.0475 149.703 61.9835C148.579 60.9556 148.357 57.2236 148.524 55.7754C149.051 51.2195 147.556 33.4344 149.28 30.7834Z" fill="#F6DD26"/>
<path d="M153.148 156.996C158.21 156.438 164.832 156.954 169.897 156.814C180.731 156.516 178.699 156.48 179.041 166.199C179.29 173.229 178.544 181.107 179.406 187.313L179.488 187.872C177.445 188.076 176.04 188.064 173.985 188.033C168.791 187.998 163.598 188.002 158.405 188.043C156.042 188.06 151.266 188.274 149.124 187.876C148.82 187.541 148.652 187.514 148.646 187.008C148.546 177.516 148.467 167.964 148.689 158.469C148.835 158.249 148.984 158.029 149.131 157.81C150.34 157.046 151.649 157.156 153.148 156.996Z" fill="#F6DD26"/>
<path d="M29.8943 156.869C36.1495 156.345 54.3931 156.58 60.0693 157.971C59.2945 164.928 58.9914 170.608 59.0036 177.65C59.0073 179.628 59.2622 186.391 59.1041 187.714C56.4704 188.085 51.068 187.944 48.2336 187.949C41.9196 187.954 35.6056 188 29.2922 188.086C28.6443 184.319 28.7384 159.039 29.8943 156.869Z" fill="#F6DD26"/>
</svg>
