<svg width="209" height="221" viewBox="0 0 209 221" fill="none" xmlns="http://www.w3.org/2000/svg">
<path d="M115.664 73.0248L115.984 73.0634C119.367 73.4482 137.917 72.2952 138.955 73.6349C140.777 75.9848 138.244 96.6466 139.488 97.5957C142.419 97.2539 146.924 97.3154 149.97 97.296L194.857 97.0535C198.277 97.0314 201.685 97.0062 205.11 96.9234C206.374 96.893 208.895 96.4218 208.788 98.4635C208.634 101.391 209.195 120.555 208.331 122.054C206.665 122.283 201.825 122.141 199.924 122.138L183.66 122.183L154.858 122.213C150.882 122.218 142.495 122.455 138.807 121.967C138.848 125.345 139.393 143.422 138.54 145.545C135.977 146.864 120.093 144.813 116.302 146.125C113.788 146.593 95.7524 146.737 92.8554 146.406C91.1977 145.393 79.4278 145.966 76.9596 145.786C75.2939 145.664 70.561 146.682 69.4616 145.201C68.9922 142.152 69.5704 125.748 70.0507 122.39C67.8117 121.897 57.706 122.303 54.8029 122.335L2.52224 123.214C1.75847 123.224 -0.176173 123.112 0.0129363 121.885C0.381923 119.49 -0.0301398 98.5394 0.220033 98.0375C2.57407 97.2549 13.1242 97.5524 16.5516 97.5031C26.6711 97.3226 36.7921 97.2412 46.9134 97.2589C54.8207 97.241 62.0421 97.1327 69.9347 97.6739C69.3385 94.0697 69.0938 76.5623 69.9558 73.8059C70.4303 72.2888 90.8301 73.8632 93.1645 73.2031C94.7718 73.0159 98.3048 73.1438 100.07 73.1164C105.236 73.0358 110.501 73.2113 115.664 73.0248Z" fill="#F9F344"/>
<path d="M70.0507 122.39C67.8117 121.897 57.706 122.303 54.8029 122.335L2.52224 123.214C1.75847 123.224 -0.176173 123.112 0.0129363 121.885C0.381923 119.49 -0.0301398 98.5394 0.220033 98.0375C2.57407 97.2549 13.1242 97.5524 16.5516 97.5031C26.6711 97.3226 36.7921 97.2412 46.9134 97.2589C54.8207 97.241 62.0421 97.1327 69.9347 97.6739C75.398 98.0388 86.7957 97.8758 92.2294 97.6146C92.0938 102.131 92.001 106.648 91.9508 111.166C91.9132 114.006 91.8673 119.557 91.4758 122.168C89.3821 122.183 70.9198 122.004 70.0507 122.39Z" fill="#F5DA1A"/>
<path d="M139.488 97.5957C142.419 97.2539 146.924 97.3154 149.97 97.296L194.857 97.0535C198.277 97.0314 201.685 97.0062 205.11 96.9234C206.374 96.893 208.895 96.4218 208.788 98.4635C208.634 101.391 209.195 120.555 208.331 122.054C206.665 122.283 201.825 122.141 199.924 122.138L183.66 122.183L154.858 122.213C150.882 122.218 142.495 122.455 138.807 121.967C131.276 122.066 124.106 121.822 116.536 122.241L116.589 97.7433C119.531 97.7729 137.828 98.2628 139.488 97.5957Z" fill="#F5DA1A"/>
<path d="M92.8554 146.406C95.7524 146.737 113.788 146.593 116.302 146.125C115.904 151.295 116.025 158.902 115.968 164.214C115.869 177.076 115.839 189.938 115.88 202.798C115.881 205.334 116.117 217.763 115.665 219.077C114.671 219.919 111.991 219.988 110.822 219.847C107.979 219.503 95.1752 220.882 93.2292 219.767C92.1795 216.386 91.9802 150.623 92.8554 146.406Z" fill="#F5DA1A"/>
<path d="M93.1645 73.2031C92.7262 71.1101 92.9148 65.9666 92.8729 63.5027L92.6216 37.4723C92.6081 29.111 92.3208 20.7075 92.5904 12.3416C92.6602 10.1762 92.3944 1.09992 93.5118 0.187116C95.1915 -0.116572 114.044 -0.0578208 115.584 0.416381C116.277 1.61047 115.705 36.7995 115.743 40.618C115.871 48.0462 115.914 55.4759 115.872 62.905C115.867 65.2882 115.971 70.9799 115.664 73.0248C110.501 73.2113 105.236 73.0358 100.07 73.1164C98.3048 73.1438 94.7718 73.0159 93.1645 73.2031Z" fill="#F5DA1A"/>
<path d="M34.791 194.461C38.9107 194.411 43.0306 194.386 47.1505 194.386C47.3964 197.54 47.4738 216.825 46.7233 218.826C45.6921 219.528 37.4179 219.334 35.2464 219.436C33.6911 219.478 24.5845 219.854 24.0821 219.314C22.3969 217.502 23.4525 198.212 23.5273 194.533C27.282 194.588 31.0374 194.563 34.791 194.461Z" fill="#F5DA1A"/>
<path d="M46.2308 48.5657C46.6906 48.6785 46.6634 48.6974 47.0322 49.0202C47.4279 50.4242 47.3514 71.9044 46.8838 72.8901C44.6251 73.7235 36.5526 73.3636 33.7508 73.4385C30.3941 73.5284 27.4934 73.5296 24.0111 73.8816C22.693 72.4662 23.4104 63.2525 23.3607 60.8223C23.3095 58.326 22.7813 51.0938 23.7701 49.2776C26.0404 48.3292 41.5274 48.9884 45.8369 48.6028L46.2308 48.5657Z" fill="#F5DA1A"/>
<path d="M202.687 194.464C204.329 194.391 207.004 194.113 208.428 194.718C208.996 195.576 208.447 216.613 208.409 219.428C204.651 219.802 195.64 219.393 191.193 219.496C189.231 219.483 187.082 220.113 185.364 219.284C184.145 216.488 185.674 199.616 184.765 195.718C184.682 195.365 184.9 195.225 185.115 194.947C186.502 194.511 200.147 194.511 202.687 194.464Z" fill="#F5DA1A"/>
<path d="M183.061 24.6983C183.908 24.6863 184.486 24.7097 185.134 25.1812C185.686 27.7454 184.763 40.7875 185.07 44.4517C185.127 45.1263 185.323 47.8147 185.087 48.3218C183.974 48.9854 167.71 48.8425 165.395 48.8721C164.971 48.892 162.427 49.1255 162.335 48.4368C161.54 42.5136 162.194 36.1752 162.011 30.1604C161.969 28.7642 161.912 26.6016 162.313 25.282C164.068 24.2594 179.641 24.944 183.061 24.6983Z" fill="#F5DA1A"/>
<path d="M48.5713 48.1455C49.0631 48.1819 48.9472 48.1709 49.4201 48.3265C49.5095 49.2097 49.5249 49.2819 49.8397 50.1212L49.9157 50.3194C48.7301 49.9634 48.8092 49.2709 48.5713 48.1455Z" fill="#000400" fill-opacity="0.0117647"/>
</svg>
