<svg width="209" height="221" viewBox="0 0 209 221" fill="none" xmlns="http://www.w3.org/2000/svg">
<path d="M69.624 48.8547C74.6729 48.1454 86.7764 48.6817 92.0783 48.8467C94.483 49.065 97.869 48.9032 100.377 48.8893L115.4 48.8167L115.834 49.0897C122.419 48.4882 131.931 48.8047 138.734 48.841C138.499 52.756 138.858 70.8572 138.092 72.8388L138.548 73.3035C140.411 73.071 160.603 72.8761 161.415 73.4253C161.796 75.2742 161.966 95.228 161.708 97.4062L161.987 97.86C161.611 101.72 161.886 107.875 161.803 111.914C161.763 113.91 161.685 120.392 161.871 122.133L161.777 122.359C161.836 125.822 162.2 143.473 161.623 145.84C159.103 146.981 142.716 146.103 138.884 146.675L138.67 146.929C138.587 154.341 138.315 163.291 138.99 170.571C131.243 170.619 123.495 170.549 115.749 170.37C108.682 170.258 99.9105 170.253 92.9172 170.549L91.9761 170.368C85.1633 170.34 78.1382 170.837 71.3148 170.534C70.9996 170.522 69.8668 170.397 69.8479 170.193C69.4156 165.549 69.3308 150.484 69.66 146.715L68.4532 146.444C68.1496 146.596 47.2008 146.578 46.3596 146.3C45.533 144.818 46.028 125.614 46.1861 122.665L45.8804 122.098C30.6554 121.966 15.4292 122.165 0.211816 122.697C-0.0520346 119.522 -0.137461 100.267 0.36066 97.9754C2.58599 96.8421 41.6188 97.17 46.3645 97.6335C46.042 93.9028 45.5983 76.1725 46.7353 73.6088C48.6147 72.7167 65.8549 73.4239 69.4721 73.208L69.7367 72.9012C69.2175 66.8085 69.6174 55.3684 69.624 48.8547Z" fill="#F9F241"/>
<path d="M46.3645 97.6335C46.042 93.9028 45.5983 76.1725 46.7353 73.6088C48.6147 72.7167 65.8549 73.4239 69.4721 73.208C69.2686 80.6857 68.9271 89.9405 69.0485 97.3187C61.2975 97.4154 54.0372 98.0166 46.2005 97.7822C46.2162 101.496 46.6804 120.017 45.8804 122.098C30.6554 121.966 15.4292 122.165 0.211816 122.697C-0.0520346 119.522 -0.137461 100.267 0.36066 97.9754C2.58599 96.8421 41.6188 97.17 46.3645 97.6335Z" fill="#F4DA15"/>
<path d="M138.548 73.3035C140.411 73.071 160.603 72.8761 161.415 73.4253C161.796 75.2742 161.966 95.228 161.708 97.4062C159.718 96.991 140.65 97.3349 138.064 97.8319C138.29 89.6989 138.191 81.3871 138.548 73.3035Z" fill="#F4DA15"/>
<path d="M138.08 122.6C145.468 122.585 154.671 122.093 161.777 122.359C161.836 125.822 162.2 143.473 161.623 145.84C159.103 146.981 142.716 146.103 138.884 146.675C138.322 144.624 138.238 126.402 138.08 122.6Z" fill="#F4DA15"/>
<path d="M115.834 49.0897C122.419 48.4882 131.931 48.8047 138.734 48.841C138.499 52.756 138.858 70.8572 138.092 72.8388C137.378 72.6812 132.748 72.8087 131.672 72.8257C126.282 72.905 120.892 73.0163 115.503 73.1596C115.708 65.4753 115.165 56.6215 115.834 49.0897Z" fill="#F4DA15"/>
<path d="M46.1861 122.665C53.7689 122.329 61.4104 122.399 69.0897 122.038C69.027 124.975 68.9331 145.385 68.4532 146.444C68.1496 146.596 47.2008 146.578 46.3596 146.3C45.533 144.818 46.028 125.614 46.1861 122.665Z" fill="#F4DA15"/>
<path d="M115.629 146.531C121.703 146.539 132.912 146.225 138.67 146.929C138.587 154.341 138.315 163.291 138.99 170.571C131.243 170.619 123.495 170.549 115.749 170.37C115.541 162.635 115.718 154.363 115.629 146.531Z" fill="#F4DA15"/>
<path d="M69.624 48.8547C74.6729 48.1454 86.7764 48.6817 92.0783 48.8467C91.6608 52.718 91.8158 58.6745 91.8248 62.6404C91.8312 65.3517 91.6881 70.3672 91.8771 72.9099L77.5786 72.9447C76.3237 72.9579 70.6392 73.1116 69.7367 72.9012C69.2175 66.8085 69.6174 55.3684 69.624 48.8547Z" fill="#F4DA15"/>
<path d="M69.66 146.715C76.9494 146.387 84.7002 146.412 92.0201 146.461C91.4727 151.904 91.8364 158.023 91.7517 163.54C91.7207 165.566 91.8795 168.12 91.6755 170.062L91.9761 170.368C85.1633 170.34 78.1382 170.837 71.3148 170.534C70.9996 170.522 69.8668 170.397 69.8479 170.193C69.4156 165.549 69.3308 150.484 69.66 146.715Z" fill="#F4DA15"/>
<path d="M92.9172 170.549C99.9105 170.253 108.682 170.258 115.749 170.37C115.685 170.827 115.782 176.312 115.773 177.304L115.582 203.011C115.581 205.713 115.922 218.199 115.22 219.828C113.731 220.174 108.324 220.064 106.559 220.069C101.71 220.072 96.8617 220.119 92.0137 220.211C92.3781 213.553 90.751 174.448 92.9172 170.549Z" fill="#F4DA15"/>
<path d="M161.987 97.86C165.554 97.1166 175.485 97.3734 179.603 97.3406C186.957 97.2809 194.314 97.2665 201.669 97.2973C204.007 97.2926 206.593 97.0999 208.827 97.1392C208.752 99.5184 208.437 122.046 208.333 122.252C206.265 122.752 201.787 122.416 199.44 122.446C190.904 122.593 182.364 122.56 173.829 122.352C170.956 122.309 164.482 121.979 161.871 122.133C161.685 120.392 161.763 113.91 161.803 111.914C161.886 107.875 161.611 101.72 161.987 97.86Z" fill="#F4DA15"/>
<path d="M92.0783 48.8467C92.0951 48.717 92.1121 48.5872 92.1292 48.4574C91.4216 32.9718 91.6521 17.5021 91.5641 2.00782C91.5612 1.48992 91.6578 0.875307 91.938 0.448902C92.4399 0.217176 93.2402 -0.0177917 93.7456 0.0381506C96.9684 0.395685 113.157 -0.352944 115.187 0.232835C116.287 3.73234 115.442 42.478 115.4 48.8167L100.377 48.8893C97.869 48.9032 94.483 49.065 92.0783 48.8467Z" fill="#F4DA15"/>
</svg>
